<svg width="20" height="20" viewBox="0 0 20 20" fill="none" xmlns="http://www.w3.org/2000/svg">
<path d="M6.11111 3H4.55556C4.143 3 3.74733 3.16389 3.45561 3.45561C3.16389 3.74733 3 4.143 3 4.55556V6.11111M3 13.8889V15.4444C3 15.857 3.16389 16.2527 3.45561 16.5444C3.74733 16.8361 4.143 17 4.55556 17H6.11111M13.8889 17H15.4444C15.857 17 16.2527 16.8361 16.5444 16.5444C16.8361 16.2527 17 15.857 17 15.4444V13.8889M17 6.11111V4.55556C17 4.143 16.8361 3.74733 16.5444 3.45561C16.2527 3.16389 15.857 3 15.4444 3H13.8889" stroke="white" stroke-width="2" stroke-linecap="round" stroke-linejoin="round"/>
</svg>
