<svg width="67" height="47" viewBox="0 0 67 47" fill="none" xmlns="http://www.w3.org/2000/svg">
<path d="M33.3626 18.9512C51.0987 18.9512 65.4887 24.9578 65.4887 32.3644C65.4887 39.7711 51.0987 45.7777 33.3626 45.7777C15.6264 45.7777 1.23642 39.7616 1.23642 32.3644C1.23642 24.9673 15.6264 18.9512 33.3626 18.9512ZM33.3626 18.7147C24.7522 18.7147 16.6503 20.117 10.5562 22.6616C4.39346 25.2345 0.999939 28.68 0.999939 32.3573C0.999939 36.0346 4.39346 39.4873 10.5562 42.0531C16.6503 44.5977 24.7451 46 33.3626 46C41.98 46 50.0748 44.5977 56.1689 42.0531C62.3316 39.4802 65.7252 36.0346 65.7252 32.3573C65.7252 28.68 62.3316 25.2274 56.1689 22.6616C50.0748 20.117 41.9729 18.7147 33.3626 18.7147Z" fill="#173430" stroke="#173430"/>
<path d="M33.3626 42.1974C18.2751 42.1974 5.99927 37.787 5.99927 32.3644C5.99927 26.9419 18.2751 22.5315 33.3626 22.5315C48.4502 22.5315 60.726 26.9419 60.726 32.3644C60.726 37.787 48.4502 42.1974 33.3626 42.1974ZM33.3626 22.768C18.4051 22.768 6.23575 27.072 6.23575 32.3644C6.23575 37.6569 18.4051 41.9609 33.3626 41.9609C48.3202 41.9609 60.4895 37.6569 60.4895 32.3644C60.4895 27.072 48.3202 22.768 33.3626 22.768Z" fill="#617D79" stroke="#617D79"/>
<path d="M46.1515 3.49468C44.3779 6.51929 43.0986 8.05879 43.0986 8.05879C43.0986 8.05879 40.1236 7.47231 37.397 8.96688C34.6703 10.4615 30.9339 11.476 27.4907 10.9108C24.0475 10.3456 14.0987 6.06051 12.6373 6.06524C11.7753 6.06413 10.9197 6.2138 10.1093 6.50747L9.16333 8.39932C9.16333 8.39932 9.67413 11.7928 14.2974 15.1651C18.9206 18.5373 25.8543 19.0292 32.2582 19.2231C38.6621 19.417 44.6475 14.186 44.7114 12.2351C44.7752 10.2841 45.6904 8.21487 47.691 5.18316C47.6816 5.18553 48.0836 4.70783 46.1515 3.49468Z" fill="#FF8C39"/>
<path d="M32.6034 19.3508C32.4828 19.3508 32.3669 19.3508 32.244 19.3508C25.9677 19.1592 18.8803 18.6697 14.2169 15.2691C9.60787 11.9016 9.05686 8.55772 9.03558 8.4182C9.03347 8.39393 9.03753 8.36952 9.0474 8.34725L9.99333 6.4554C10.0057 6.42919 10.0277 6.40883 10.0548 6.39864C10.8817 6.09477 11.7562 5.94101 12.6372 5.94459C13.3467 5.94459 15.8581 6.8716 18.7668 7.94287C22.009 9.1371 25.6863 10.4921 27.5167 10.7807C30.5578 11.282 34.2328 10.5607 37.3473 8.85096C39.8398 7.49355 42.5853 7.85301 43.0583 7.93105C44.1599 6.50351 45.1626 5.00228 46.0593 3.43788C46.0671 3.42423 46.0776 3.41235 46.0902 3.40299C46.1028 3.39363 46.1173 3.38699 46.1326 3.38349C46.164 3.37641 46.1969 3.38148 46.2248 3.39768C47.2157 4.01963 47.7738 4.58009 47.8376 4.97974C47.8493 5.02819 47.8504 5.07857 47.8411 5.12751C47.8317 5.17645 47.812 5.22282 47.7832 5.26352C45.7471 8.33779 44.891 10.3692 44.8296 12.2421C44.7515 14.2971 38.934 19.3508 32.6034 19.3508ZM9.27679 8.4182C9.3501 8.78711 10.0856 11.9654 14.3564 15.0704C18.9655 18.4332 26.0103 18.918 32.2511 19.1072C38.4918 19.2964 44.5174 14.2049 44.5836 12.2327C44.6451 10.3124 45.5154 8.2503 47.5846 5.11927C47.5846 5.11927 47.788 4.68651 46.1917 3.66017C45.2985 5.22125 44.2948 6.71648 43.1884 8.13442C43.1749 8.15088 43.1573 8.16333 43.1372 8.17042C43.1172 8.17751 43.0956 8.17897 43.0749 8.17462C43.0465 8.17462 40.1094 7.61416 37.4537 9.07089C34.2943 10.8043 30.5626 11.535 27.4694 11.0266C25.6272 10.7239 21.9404 9.37122 18.6864 8.16753C15.9196 7.14592 13.3065 6.18107 12.6396 6.18107C11.8044 6.18451 10.9757 6.32676 10.1872 6.60201L9.27679 8.4182Z" fill="#173430" stroke="#173430"/>
<path d="M30.0164 17.7687C26.8682 17.7689 23.7513 17.1452 20.8456 15.9336C12.4883 12.4502 11.1049 8.36612 11.0505 8.18166C11.0458 8.16676 11.044 8.15106 11.0454 8.13548C11.0467 8.11989 11.0512 8.10473 11.0584 8.09088C11.0657 8.07702 11.0756 8.06474 11.0877 8.05475C11.0997 8.04476 11.1136 8.03726 11.1285 8.03268C11.1583 8.02361 11.1905 8.02643 11.2183 8.04053C11.246 8.05464 11.2673 8.07894 11.2775 8.10835C11.2775 8.15092 12.6964 12.2799 20.9378 15.716C29.4512 19.2632 37.9031 16.9812 40.9277 14.316C40.9502 14.2942 40.9803 14.282 41.0116 14.282C41.043 14.282 41.0731 14.2942 41.0956 14.316C41.1066 14.3268 41.1154 14.3397 41.1213 14.3539C41.1273 14.3681 41.1304 14.3834 41.1304 14.3988C41.1304 14.4142 41.1273 14.4295 41.1213 14.4437C41.1154 14.4579 41.1066 14.4708 41.0956 14.4816C39.1375 16.1984 34.9873 17.7687 30.0164 17.7687Z" fill="#173430" stroke="#173430"/>
<path d="M9.15383 8.40165C9.15383 8.40165 10.2204 8.10132 10.4758 7.63781C10.7312 7.17431 11.3649 6.56655 11.1687 6.34898C10.3268 5.41961 9.72612 6.95438 9.4187 7.57396C9.40451 7.59998 9.03796 8.43239 9.15383 8.40165Z" fill="#173430" stroke="#173430"/>
<path d="M9.15621 8.51755C9.13562 8.51789 9.11517 8.51409 9.09607 8.50637C9.07698 8.49865 9.05963 8.48718 9.04506 8.47262C8.91973 8.31891 9.29573 7.55507 9.31229 7.52669C9.32884 7.49832 9.36904 7.40845 9.40215 7.34224C9.63863 6.81961 10.0241 6.02976 10.5562 5.95172C10.6924 5.93947 10.8294 5.96291 10.9538 6.01971C11.0782 6.07652 11.1857 6.16475 11.2656 6.2757C11.4619 6.4909 11.2089 6.82907 10.918 7.22163C10.7997 7.37302 10.6899 7.53092 10.5893 7.6946C10.3102 8.19594 9.24844 8.49864 9.19405 8.51519H9.16567L9.15621 8.51755ZM10.6413 6.17638H10.5917C10.1825 6.2355 9.82782 6.98515 9.61499 7.43447L9.52512 7.62128C9.48019 7.71351 9.34539 8.03749 9.28864 8.23141C9.62681 8.1179 10.218 7.86959 10.3812 7.57635C10.4843 7.40112 10.5989 7.23286 10.7241 7.07265C10.8754 6.87164 11.1521 6.49563 11.0883 6.42468C11.0347 6.3554 10.9673 6.29798 10.8903 6.25605C10.8134 6.21413 10.7286 6.18861 10.6413 6.18111V6.17638Z" fill="#173430" stroke="#173430"/>
<path d="M47.1992 6.10302C47.1992 6.10302 45.9505 10.4306 43.179 11.736C40.415 11.9627 37.6969 12.5789 35.1054 13.5664C30.7069 15.2218 28.1576 17.6008 23.1513 16.9836C18.1449 16.3664 14.9075 14.6542 12.8879 15.6687L11.7906 18.4616C11.7906 18.4616 11.9467 21.5761 17.4851 24.9861C23.0236 28.3962 35.2213 26.606 39.9746 23.7328C44.7279 20.8595 45.6502 15.113 45.6809 13.9873C45.7117 12.8617 49.6586 8.18879 49.7934 7.57394C49.9282 6.95909 47.1992 6.10302 47.1992 6.10302Z" fill="#FF8C39"/>
<path d="M26.1002 26.9514C22.7445 26.9514 19.5757 26.4098 17.4308 25.0879C11.9042 21.6826 11.6866 18.5988 11.6795 18.4664C11.6762 18.45 11.6762 18.4331 11.6795 18.4167L12.7886 15.6262C12.7933 15.6126 12.8008 15.6001 12.8106 15.5895C12.8203 15.579 12.8322 15.5705 12.8454 15.5648C14.1271 14.9192 15.8227 15.3283 18.1686 15.8887C19.8165 16.3133 21.4883 16.6395 23.1749 16.8654C26.7529 17.3076 29.0563 16.2056 31.7238 14.931C32.7667 14.432 33.8521 13.9165 35.0724 13.4553C37.6703 12.4721 40.3922 11.8545 43.1601 11.6202C45.8252 10.3409 47.0786 6.11256 47.0786 6.06999C47.0878 6.03996 47.1081 6.01458 47.1353 5.99905C47.1652 5.9884 47.1977 5.9884 47.2276 5.99905C47.8944 6.20715 50.0654 6.94498 49.9093 7.60949C49.8549 7.84597 49.3512 8.55542 48.4691 9.73783C47.3505 11.256 45.8181 13.3347 45.7992 13.9945C45.7992 14.0607 45.3665 20.616 40.0361 23.8369C37.1109 25.6082 31.3762 26.9514 26.1002 26.9514ZM11.9113 18.4806C11.9444 18.7715 12.3843 21.7086 17.5467 24.8869C23.0023 28.2449 35.1646 26.5044 39.9132 23.6312C45.1394 20.467 45.5604 14.0465 45.5627 13.9827C45.584 13.2567 47.0147 11.3128 48.2775 9.60067C48.9728 8.65474 49.6326 7.76084 49.6799 7.54801C49.7461 7.24294 48.4975 6.64937 47.2701 6.25208C47.0455 6.96153 45.7874 10.6341 43.231 11.8449C43.2162 11.8482 43.2009 11.8482 43.1861 11.8449C40.4342 12.0745 37.728 12.6874 35.1457 13.6658C33.9231 14.1388 32.8518 14.6377 31.816 15.1344C29.113 16.4256 26.7789 17.5418 23.1347 17.0924C21.4427 16.8651 19.7654 16.5382 18.1119 16.1134C15.8393 15.5695 14.191 15.1675 12.9896 15.7516L11.9113 18.4806Z" fill="#173430" stroke="#173430"/>
<path d="M48.5329 7.75136C48.7473 9.40977 48.5222 11.0954 47.8802 12.6395C47.8802 12.6395 45.3948 13.3986 42.3489 17.2532C39.303 21.1079 35.1267 24.4163 29.2762 24.6859C23.4256 24.9555 18.5209 23.5318 16.2696 24.8419C14.0183 26.1521 14.4558 27.1169 12.1265 27.1358L10.788 29.9334C10.788 29.9334 11.5565 31.4847 14.8082 33.1898C18.0598 34.8948 25.1117 37.1367 33.1403 35.4198C41.1689 33.7029 47.3576 29.1104 49.9305 23.4774C52.5035 17.8444 50.6258 13.006 50.6258 13.006C50.6258 13.006 51.0988 9.60065 51.4724 8.19358L48.5329 7.75136Z" fill="#FF8C39"/>
<path d="M27.2661 36.1599C20.6635 36.1599 15.8629 33.866 14.7704 33.2937C11.5164 31.5911 10.7242 30.0516 10.691 29.983C10.6829 29.9668 10.6787 29.949 10.6787 29.9309C10.6787 29.9129 10.6829 29.8951 10.691 29.8789L12.0295 27.0837C12.0383 27.0634 12.0528 27.046 12.0713 27.0339C12.0898 27.0217 12.1114 27.0152 12.1336 27.0151C13.5288 27.0033 13.893 26.6533 14.4984 26.0692C15.0116 25.5503 15.5913 25.1018 16.2224 24.7354C17.5727 23.9456 19.8193 24.1229 22.6618 24.3452C24.8621 24.5577 27.0737 24.6303 29.2833 24.5628C34.2754 24.3263 38.5227 21.9166 42.2685 17.1751C45.0921 13.6018 47.412 12.6819 47.8046 12.54C48.4191 11.0301 48.6341 9.38737 48.4289 7.77018C48.4254 7.75165 48.4263 7.73253 48.4316 7.71442C48.437 7.69632 48.4466 7.67976 48.4596 7.66613C48.4727 7.65207 48.489 7.64146 48.5072 7.63527C48.5254 7.62908 48.5448 7.62749 48.5637 7.63066L51.489 8.07288C51.5223 8.0788 51.552 8.09746 51.5718 8.12491C51.5805 8.13929 51.5863 8.15528 51.5887 8.17194C51.5912 8.1886 51.5902 8.20558 51.5859 8.22186C51.2336 9.53671 50.7937 12.6512 50.7464 12.9894C50.9002 13.4103 52.5271 18.1423 50.0606 23.5246C47.3907 29.3539 41.0743 33.8447 33.1829 35.5332C31.2383 35.9502 29.2549 36.1603 27.2661 36.1599ZM10.9299 29.9286C11.0931 30.2029 12.0201 31.584 14.8791 33.0833C16.2673 33.8093 23.6668 37.3399 33.1332 35.3038C40.9584 33.6295 47.2063 29.1908 49.8454 23.43C52.3734 17.9105 50.5336 13.0958 50.5147 13.0485C50.5101 13.029 50.5101 13.0088 50.5147 12.9894C50.5147 12.9562 50.9616 9.75664 51.3306 8.29044L48.6819 7.89315C48.8572 9.52143 48.6222 11.1677 47.9985 12.6819C47.992 12.6984 47.9818 12.7131 47.9686 12.725C47.9555 12.7369 47.9398 12.7456 47.9228 12.7505C47.8992 12.7505 45.4327 13.5522 42.4483 17.3264C38.6645 22.1247 34.3535 24.5699 29.2904 24.804C27.0745 24.8725 24.8566 24.7999 22.65 24.5864C19.8453 24.3665 17.6318 24.1939 16.3453 24.9435C15.7306 25.3009 15.166 25.7383 14.6663 26.2442C14.0538 26.8354 13.6447 27.228 12.2187 27.254L10.9299 29.9286Z" fill="#173430" stroke="#173430"/>
<path d="M51.6356 9.69516C51.6356 9.69516 52.1535 9.73536 51.8863 12.3911C51.6191 15.0468 51.2951 18.7146 46.3692 25.1729C41.4432 31.6313 33.6582 33.542 28.2901 34.242C22.9219 34.942 22.1321 39.0521 22.1321 39.0521L23.0946 41.4689C23.0946 41.4689 24.3716 42.5899 27.5735 43.0273C30.7755 43.4648 37.3308 43.9283 44.0989 40.6129C50.8671 37.2974 55.9822 27.7506 55.6298 22.5716C55.4359 19.7338 53.4849 17.4943 53.615 16.2836C53.7451 15.0728 54.5964 10.5891 54.5964 10.5891L51.6356 9.69516Z" fill="#FF8C39"/>
<path d="M31.9436 43.4508C30.4786 43.4488 29.0154 43.3477 27.564 43.1481C24.362 42.7083 23.0708 41.6062 23.0212 41.5613C23.0074 41.5481 22.9969 41.5319 22.9904 41.514L22.0279 39.0972C22.0209 39.0757 22.0209 39.0525 22.0279 39.031C22.0279 38.9884 22.8982 34.8287 28.29 34.1263C36.4888 33.055 42.5451 30.0186 46.2887 25.0998C51.1413 18.7289 51.5055 15.106 51.7727 12.4622V12.3794C52.0092 10.1257 51.6497 9.83484 51.6142 9.81119C51.5864 9.8029 51.5626 9.78445 51.5477 9.75948C51.5328 9.73451 51.5279 9.70485 51.5338 9.67639C51.5385 9.64751 51.5542 9.62155 51.5775 9.60393C51.6009 9.5863 51.6301 9.57838 51.6592 9.5818C51.6756 9.57861 51.6924 9.57861 51.7088 9.5818L54.6436 10.4733C54.6713 10.4821 54.6949 10.5005 54.7101 10.5253C54.7253 10.55 54.7311 10.5795 54.7263 10.6081C54.7263 10.6531 53.875 15.1013 53.7473 16.2837C53.6953 16.7827 54.0406 17.5181 54.4426 18.3695C54.9817 19.5093 55.651 20.9306 55.7621 22.5505C56.1311 27.9896 50.8504 37.43 44.1745 40.7076C40.3611 42.5456 36.1768 43.4841 31.9436 43.4508ZM23.1938 41.3981C23.3711 41.54 24.6836 42.5143 27.59 42.914C33.502 43.7228 39.1776 42.8903 44.0468 40.509C47.1518 38.986 50.1291 36.0465 52.4325 32.2321C54.5348 28.7487 55.6865 25.1376 55.5067 22.5812C55.4003 21.0063 54.7405 19.6063 54.2108 18.483C53.7757 17.5631 53.4328 16.8276 53.5014 16.2719C53.6196 15.1746 54.3338 11.3578 54.4615 10.6743L51.9429 9.91051C52.073 10.2629 52.151 10.977 52.0068 12.403V12.4858C51.7372 15.1581 51.3683 18.8188 46.4778 25.2559C42.6941 30.222 36.5834 33.2963 28.3207 34.3723C23.3546 35.0202 22.3566 38.6715 22.2668 39.0546L23.1938 41.3981Z" fill="#173430" stroke="#173430"/>
<path d="M56.2375 8.14863C56.2375 8.14863 48.0765 5.29428 45.4823 1.11091C45.4823 1.11091 42.7367 1.95042 44.0918 3.49465C44.0918 3.49465 50.8788 10.653 54.2771 12.008C54.2771 12.008 53.0048 8.64287 56.2375 8.14863Z" fill="#173430"/>
<path d="M54.2771 12.1263C54.2623 12.1298 54.2469 12.1298 54.2322 12.1263C50.8481 10.7689 44.2833 3.8683 44.0043 3.57979C43.6496 3.1754 43.5313 2.77811 43.6354 2.39738C43.8931 1.48928 45.3853 1.02578 45.4492 1.0045C45.4743 0.997451 45.501 0.998712 45.5252 1.00809C45.5495 1.01747 45.5702 1.03446 45.584 1.05652C48.1262 5.15713 56.195 8.0162 56.2777 8.04458C56.3091 8.0474 56.338 8.06256 56.3582 8.08673C56.3784 8.1109 56.3882 8.1421 56.3853 8.17346C56.3825 8.20482 56.3673 8.23377 56.3432 8.25395C56.319 8.27413 56.2878 8.28388 56.2564 8.28106C55.3933 8.41349 54.7855 8.77058 54.4521 9.33814C53.8136 10.4307 54.3811 11.9678 54.3859 11.982C54.3943 12.0031 54.3964 12.0263 54.3917 12.0486C54.3871 12.0709 54.376 12.0913 54.3599 12.1073C54.3356 12.1237 54.3061 12.1304 54.2771 12.1263ZM45.4326 1.24807C45.1205 1.35685 44.054 1.78016 43.8624 2.45177C43.7773 2.7521 43.8837 3.07372 44.1793 3.41189C44.2431 3.4781 50.6778 10.2415 54.0855 11.7928C53.9413 11.2868 53.7095 10.1233 54.2487 9.19152C54.4213 8.91367 54.6487 8.67392 54.9171 8.48689C55.1854 8.29986 55.4891 8.16948 55.8095 8.1037C54.1565 7.48648 47.736 4.85679 45.4232 1.2528L45.4326 1.24807Z" fill="#173430" stroke="#173430"/>
<path d="M57.1651 11.0832C57.7693 10.01 57.5192 8.72341 56.6065 8.20953C55.6938 7.69565 54.464 8.14907 53.8598 9.22228C53.2556 10.2955 53.5057 11.5821 54.4184 12.096C55.3311 12.6098 56.5609 12.1564 57.1651 11.0832Z" fill="#173430" stroke="#173430"/>
<path d="M55.242 12.4289C54.8717 12.4316 54.5101 12.3174 54.2085 12.1026C53.3028 11.4593 53.1538 10.0617 53.8727 8.9881C54.0492 8.71478 54.2783 8.4793 54.5466 8.29538C54.815 8.11147 55.1173 7.98278 55.4359 7.91684C55.6751 7.86993 55.9213 7.87172 56.1598 7.9221C56.3983 7.97248 56.6242 8.07042 56.824 8.21008C57.7274 8.85567 57.8787 10.2533 57.1598 11.3245C56.9832 11.5985 56.7538 11.8345 56.4851 12.0188C56.2163 12.2032 55.9135 12.3321 55.5943 12.3982C55.478 12.4189 55.3601 12.4292 55.242 12.4289ZM55.7882 8.12258C55.6843 8.12274 55.5806 8.13224 55.4784 8.15096C55.1891 8.20943 54.9144 8.32538 54.6707 8.49192C54.427 8.65847 54.2192 8.87222 54.0595 9.12053C53.4116 10.0877 53.5346 11.3411 54.3362 11.911C54.5097 12.0326 54.706 12.1177 54.9133 12.1612C55.1206 12.2047 55.3346 12.2057 55.5423 12.1641C55.8314 12.105 56.1058 11.9887 56.3495 11.8223C56.5931 11.6558 56.8011 11.4423 56.9612 11.1945C57.6092 10.2273 57.4838 8.97391 56.6845 8.40399C56.4226 8.21852 56.1091 8.12008 55.7882 8.12258Z" fill="#173430" stroke="#173430"/>
<path d="M12.4694 28.0865C12.5894 27.8501 12.6253 27.5798 12.5711 27.3203C12.4268 26.9963 11.8616 26.9584 11.566 26.9466C10.7927 26.9159 10.7691 27.1618 10.4238 27.8547C10.1447 28.4199 9.83259 29.0087 10.2961 29.5408C10.9843 30.3354 11.715 29.6614 12.0886 28.9023C12.1761 28.725 12.3464 28.4104 12.4694 28.0865Z" fill="#173430" stroke="#173430"/>
<path d="M10.9512 30.0161C10.8054 30.0089 10.6631 29.9695 10.5343 29.9008C10.4055 29.8321 10.2935 29.7359 10.2063 29.6189C9.70255 29.0395 10.0194 28.4057 10.2961 27.8452L10.3198 27.8003C10.3552 27.7294 10.3883 27.6608 10.4167 27.5993C10.6816 27.0483 10.8022 26.7976 11.5708 26.8284C12.0035 26.8473 12.5167 26.9135 12.6799 27.273C12.7603 27.4574 12.7272 27.7459 12.5782 28.129C12.4812 28.3821 12.3559 28.6327 12.2637 28.8172L12.1974 28.9543C11.9042 29.5574 11.488 29.9523 11.06 30.0091C11.0239 30.0138 10.9876 30.0162 10.9512 30.0161ZM11.4241 27.0625C10.9299 27.0625 10.8613 27.2067 10.6248 27.701C10.5941 27.7648 10.561 27.8334 10.5231 27.9067L10.5019 27.9493C10.2323 28.4932 9.97923 29.004 10.3765 29.4628C10.4482 29.5659 10.5453 29.6488 10.6584 29.7035C10.7715 29.7582 10.8968 29.7828 11.0221 29.7749C11.4218 29.7205 11.7789 29.2618 11.968 28.8503L12.039 28.7108C12.1517 28.4937 12.2536 28.2711 12.3441 28.0439C12.4978 27.6395 12.4859 27.4527 12.4481 27.3699C12.3299 27.098 11.7387 27.0719 11.5471 27.0648L11.4241 27.0625Z" fill="#173430" stroke="#173430"/>
<path d="M26.0482 31.1702C22.8587 31.1682 19.6956 30.5931 16.7095 29.4722C16.6946 29.4666 16.6811 29.458 16.6696 29.447C16.6581 29.436 16.6489 29.4228 16.6427 29.4081C16.6364 29.3935 16.6332 29.3778 16.6332 29.3618C16.6332 29.3459 16.6363 29.3302 16.6426 29.3155C16.6488 29.3009 16.6579 29.2876 16.6693 29.2766C16.6808 29.2655 16.6943 29.2569 16.7092 29.2512C16.7241 29.2455 16.7399 29.2429 16.7558 29.2435C16.7717 29.2441 16.7874 29.2479 16.8018 29.2547C16.8822 29.2878 25.1094 32.705 33.3673 29.6969C42.732 26.2868 46.3384 20.4221 47.6532 17.2272C47.6658 17.1988 47.6887 17.1764 47.7173 17.1645C47.7459 17.1526 47.778 17.1522 47.807 17.1633C47.8215 17.1693 47.8347 17.1781 47.8458 17.1892C47.8569 17.2003 47.8657 17.2135 47.8716 17.228C47.8775 17.2425 47.8805 17.2581 47.8804 17.2738C47.8803 17.2895 47.877 17.305 47.8708 17.3194C46.5418 20.5474 42.9047 26.4784 33.4454 29.9192C31.0715 30.7644 28.568 31.1878 26.0482 31.1702Z" fill="#173430" stroke="#173430"/>
<path d="M21.8246 38.9551C21.5479 39.3785 21.302 39.8396 21.3516 40.2984C21.3761 40.4861 21.4432 40.6657 21.5477 40.8235C21.6522 40.9813 21.7914 41.1131 21.9547 41.2088C22.1036 41.32 23.2719 41.9183 23.4067 41.6818C23.5746 41.3956 23.2884 41.0717 23.1182 40.7879C22.6452 40.017 22.9786 38.8204 22.2881 38.2552C22.158 38.4727 21.9854 38.7068 21.8246 38.9551Z" fill="#173430" stroke="#173430"/>
<path d="M23.2743 41.8544C22.8651 41.8544 21.9925 41.3814 21.8814 41.3034C21.5148 41.0315 21.2783 40.769 21.2311 40.3102C21.179 39.8088 21.451 39.3099 21.7253 38.8913C21.7892 38.792 21.8554 38.6974 21.9169 38.6051C22.0138 38.4609 22.1084 38.3261 22.1841 38.1984C22.1928 38.184 22.2045 38.1717 22.2184 38.1622C22.2323 38.1527 22.2481 38.1463 22.2646 38.1434C22.2812 38.1405 22.2982 38.1412 22.3145 38.1453C22.3307 38.1495 22.346 38.1571 22.3591 38.1677C22.7871 38.5176 22.8557 39.0757 22.9243 39.6149C22.9454 40.0035 23.0443 40.3839 23.2151 40.7335C23.2435 40.7784 23.2766 40.8257 23.3074 40.8754C23.4753 41.1284 23.6834 41.4453 23.506 41.7456C23.4897 41.773 23.4673 41.7964 23.4407 41.814C23.4141 41.8316 23.3839 41.843 23.3523 41.8473C23.3266 41.8522 23.3004 41.8546 23.2743 41.8544ZM21.9239 39.0166C21.6733 39.3997 21.4226 39.8514 21.4675 40.2794C21.5054 40.6554 21.704 40.8683 22.0233 41.1095C22.2077 41.2467 23.156 41.6841 23.3145 41.6085C23.3972 41.4595 23.2837 41.2632 23.1111 41.0007C23.0756 40.9487 23.0425 40.899 23.0141 40.8494C22.8221 40.4731 22.7117 40.0605 22.6901 39.6386C22.631 39.1656 22.5766 38.7352 22.3094 38.4396C22.2479 38.5342 22.1817 38.6312 22.1131 38.7328C22.0446 38.8345 21.9854 38.9197 21.9239 39.0166Z" fill="#173430" stroke="#173430"/>
<path d="M27.6089 38.7305C26.4956 38.752 25.3838 38.6377 24.2982 38.39C24.2831 38.3859 24.269 38.3788 24.2567 38.3692C24.2445 38.3595 24.2342 38.3475 24.2267 38.3338C24.2192 38.3201 24.2146 38.305 24.213 38.2895C24.2115 38.2739 24.2131 38.2583 24.2178 38.2434C24.2266 38.2138 24.2466 38.1888 24.2736 38.1738C24.3005 38.1588 24.3323 38.1549 24.362 38.163C24.4401 38.1842 32.14 40.2511 41.5307 33.8022C49.8241 28.1077 50.6991 23.9007 51.5457 19.8308C51.6403 19.3697 51.7349 18.9133 51.8413 18.4569C51.8447 18.4416 51.851 18.4272 51.86 18.4144C51.8689 18.4016 51.8803 18.3907 51.8935 18.3824C51.9067 18.374 51.9214 18.3684 51.9368 18.3657C51.9522 18.3631 51.968 18.3635 51.9832 18.367C51.9984 18.3703 52.0128 18.3767 52.0254 18.3857C52.0381 18.3947 52.0489 18.4061 52.0571 18.4194C52.0652 18.4326 52.0706 18.4474 52.073 18.4628C52.0753 18.4781 52.0745 18.4938 52.0707 18.5089C51.9666 18.9629 51.872 19.4194 51.7751 19.8781C50.9214 23.9953 50.0346 28.2496 41.6655 33.9985C35.9048 37.9454 30.7754 38.7305 27.6089 38.7305Z" fill="#173430" stroke="#173430"/>
<path d="M25.7384 21.9899C25.6249 21.9899 25.5019 21.9899 25.3955 21.9899C19.1074 21.8433 12.6515 18.7997 12.5876 18.769C12.5736 18.7622 12.5611 18.7527 12.5508 18.741C12.5405 18.7294 12.5326 18.7158 12.5275 18.7011C12.5225 18.6863 12.5204 18.6708 12.5214 18.6552C12.5223 18.6397 12.5264 18.6245 12.5332 18.6105C12.5398 18.5966 12.5491 18.5842 12.5605 18.5739C12.572 18.5636 12.5853 18.5557 12.5999 18.5506C12.6144 18.5456 12.6298 18.5434 12.6451 18.5444C12.6605 18.5453 12.6755 18.5493 12.6893 18.5562C12.7532 18.5869 19.1642 21.6091 25.4002 21.7534C31.6363 21.8977 39.6034 17.9957 42.5949 15.1319C45.0708 12.7671 45.1418 12.8215 45.2506 12.9113C45.2774 12.9383 45.2925 12.9749 45.2925 13.013C45.2925 13.0511 45.2774 13.0877 45.2506 13.1147C45.2356 13.1373 45.2134 13.1541 45.1876 13.1623C45.1617 13.1705 45.1339 13.1695 45.1087 13.1596C44.9337 13.285 44.3992 13.7319 42.7438 15.3022C39.7925 18.1376 31.9603 21.9899 25.7384 21.9899Z" fill="#173430" stroke="#173430"/>
<path d="M12.895 15.6688C12.5498 15.7279 11.6795 15.5671 11.6086 16.0117C11.5991 16.1802 11.5991 16.3492 11.6086 16.5177C11.592 16.8275 11.3981 17.0924 11.2799 17.3762C10.9913 18.0549 11.4147 18.1022 11.7954 18.4616C12.0809 18.1085 12.3349 17.731 12.5545 17.3336C12.6113 17.2414 13.2048 15.6167 12.895 15.6688Z" fill="#173430" stroke="#173430"/>
<path d="M11.8025 18.5799C11.7727 18.5806 11.7438 18.5696 11.7221 18.5492C11.6432 18.4765 11.5595 18.4093 11.4714 18.3482C11.1876 18.1377 10.918 17.939 11.1781 17.3289C11.2136 17.2438 11.2562 17.161 11.2987 17.0783C11.4571 16.8544 11.5254 16.5792 11.4903 16.3073C11.4773 16.2029 11.4773 16.0972 11.4903 15.9928C11.5802 15.43 12.5426 15.6073 12.8761 15.5529C12.9093 15.5463 12.9438 15.5495 12.9753 15.5621C13.0068 15.5747 13.0339 15.5961 13.0534 15.6239C13.2639 15.9148 12.6751 17.3762 12.668 17.388C12.4432 17.791 12.1853 18.1747 11.897 18.535C11.8866 18.5478 11.8737 18.5584 11.8591 18.5661C11.8444 18.5738 11.8284 18.5785 11.8119 18.5799H11.8025ZM12.8666 15.7918C12.7564 15.7982 12.6458 15.7982 12.5356 15.7918C12.1903 15.7918 11.7599 15.7918 11.7244 16.0283C11.7138 16.1139 11.7138 16.2004 11.7244 16.286C11.7292 16.3648 11.7292 16.4438 11.7244 16.5225C11.6932 16.7567 11.6126 16.9816 11.4879 17.1823C11.4477 17.2603 11.4075 17.3407 11.3721 17.4188C11.1876 17.8563 11.3224 17.9556 11.592 18.1542C11.6464 18.1944 11.7055 18.2394 11.7646 18.289C12.016 17.9699 12.2406 17.6306 12.4362 17.2745C12.5356 17.1255 12.8974 16.0496 12.8666 15.7918Z" fill="#173430" stroke="#173430"/>
</svg>
