<svg width="67" height="32" viewBox="0 0 67 32" fill="none" xmlns="http://www.w3.org/2000/svg">
<path d="M23 18C22.6 25.6 17.8333 29.8333 15.5 31H19.5C25.5 30.6 28.6667 24.5 29.5 21.5C31.9 8.7 25.5 2.83333 22 1.5H15.5C18.5 2.5 23.5 8.5 23 18Z" fill="#19B888"/>
<path d="M52.5 18C52.1 25.6 47.3333 29.8333 45 31H49C55 30.6 58.1667 24.5 59 21.5C61.4 8.7 55 2.83333 51.5 1.5H45C48 2.5 53 8.5 52.5 18Z" fill="#19B888"/>
<path fill-rule="evenodd" clip-rule="evenodd" d="M59.7748 18.6625H63.9085C64.9467 18.6625 65.73 17.515 65.73 16.0517C65.73 14.5884 64.9467 13.4409 63.9085 13.4409H59.7679C59.7922 13.6419 59.8137 13.8443 59.8325 14.0481H63.9085C64.5521 14.0481 65.1228 14.9649 65.1228 16.0517C65.1228 17.1385 64.5824 18.0554 63.9085 18.0554H59.8378C59.8196 18.2591 59.7985 18.4615 59.7748 18.6625Z" fill="#173430"/>
<path d="M59.7748 18.6625L59.2782 18.6038L59.2122 19.1625H59.7748V18.6625ZM59.7679 13.4409V12.9409H59.2038L59.2715 13.5009L59.7679 13.4409ZM59.8325 14.0481L59.3346 14.094L59.3765 14.5481H59.8325V14.0481ZM59.8378 18.0554V17.5554H59.3806L59.3398 18.0108L59.8378 18.0554ZM63.9085 18.1625H59.7748V19.1625H63.9085V18.1625ZM65.23 16.0517C65.23 16.6992 65.0559 17.2483 64.7976 17.621C64.5411 17.9911 64.2251 18.1625 63.9085 18.1625V19.1625C64.6301 19.1625 65.2249 18.7602 65.6195 18.1907C66.0124 17.6238 66.23 16.8675 66.23 16.0517H65.23ZM63.9085 13.9409C64.2251 13.9409 64.5411 14.1123 64.7976 14.4824C65.0559 14.8551 65.23 15.4042 65.23 16.0517H66.23C66.23 15.236 66.0124 14.4797 65.6195 13.9128C65.2249 13.3433 64.6301 12.9409 63.9085 12.9409V13.9409ZM59.7679 13.9409H63.9085V12.9409H59.7679V13.9409ZM59.2715 13.5009C59.2952 13.6972 59.3163 13.8949 59.3346 14.094L60.3304 14.0022C60.3112 13.7937 60.2891 13.5866 60.2643 13.3809L59.2715 13.5009ZM63.9085 13.5481H59.8325V14.5481H63.9085V13.5481ZM65.6228 16.0517C65.6228 15.4263 65.4597 14.8333 65.1836 14.3816C64.9175 13.9461 64.4798 13.5481 63.9085 13.5481V14.5481C63.9808 14.5481 64.1503 14.6084 64.3304 14.9031C64.5006 15.1815 64.6228 15.5903 64.6228 16.0517H65.6228ZM63.9085 18.5554C64.4913 18.5554 64.9306 18.162 65.197 17.7186C65.4698 17.2645 65.6228 16.6718 65.6228 16.0517H64.6228C64.6228 16.5185 64.5057 16.9275 64.3398 17.2036C64.1675 17.4903 63.9996 17.5554 63.9085 17.5554V18.5554ZM59.8378 18.5554H63.9085V17.5554H59.8378V18.5554ZM59.3398 18.0108C59.322 18.2098 59.3014 18.4075 59.2782 18.6038L60.2713 18.7212C60.2956 18.5155 60.3171 18.3084 60.3358 18.1L59.3398 18.0108Z" fill="#173430"/>
<path fill-rule="evenodd" clip-rule="evenodd" d="M33.1725 18.3589C33.9277 25.5592 38.1502 31.0912 43.2285 31.0912C48.8387 31.0912 53.4046 24.3395 53.4046 16.0456C53.4046 7.75169 48.8387 1 43.2285 1C38.1474 1 33.9229 6.53818 33.1713 13.7444H33.781C34.5136 6.87381 38.4712 1.60717 43.2285 1.60717V1.61323C48.5048 1.61323 52.7974 8.08563 52.7974 16.0456C52.7974 24.0055 48.4865 30.484 43.2285 30.484C38.4904 30.484 34.5215 25.2235 33.7828 18.3589H33.1725Z" fill="#173430"/>
<path d="M33.1725 18.3589V17.8589H32.6174L32.6753 18.411L33.1725 18.3589ZM33.1713 13.7444L32.674 13.6925L32.6164 14.2444H33.1713V13.7444ZM33.781 13.7444V14.2444H34.2305L34.2782 13.7974L33.781 13.7444ZM43.2285 1.60717H43.7285V1.10717H43.2285V1.60717ZM43.2285 1.61323H42.7285V2.11323H43.2285V1.61323ZM33.7828 18.3589L34.2799 18.3054L34.2319 17.8589H33.7828V18.3589ZM43.2285 30.5912C40.8842 30.5912 38.6918 29.3154 36.9733 27.1172C35.2549 24.9191 34.0392 21.8287 33.6698 18.3067L32.6753 18.411C33.061 22.0893 34.3342 25.365 36.1854 27.7331C38.0365 30.1009 40.4945 31.5912 43.2285 31.5912V30.5912ZM52.9046 16.0456C52.9046 20.1057 51.7861 23.7667 50.0062 26.3985C48.2241 29.0334 45.8172 30.5912 43.2285 30.5912V31.5912C46.25 31.5912 48.9311 29.773 50.8345 26.9587C52.7401 24.1411 53.9046 20.2793 53.9046 16.0456H52.9046ZM43.2285 1.5C45.8172 1.5 48.2241 3.05774 50.0062 5.69269C51.7861 8.32445 52.9046 11.9854 52.9046 16.0456H53.9046C53.9046 11.8118 52.7401 7.95003 50.8345 5.13247C48.9311 2.31811 46.25 0.5 43.2285 0.5V1.5ZM33.6686 13.7963C34.0362 10.2714 35.2516 7.17795 36.9704 4.97767C38.6893 2.77716 40.8829 1.5 43.2285 1.5V0.5C40.493 0.5 38.0338 1.99193 36.1823 4.36207C34.3307 6.73243 33.058 10.0112 32.674 13.6925L33.6686 13.7963ZM33.1713 14.2444H33.781V13.2444H33.1713V14.2444ZM43.2285 1.10717C40.6515 1.10717 38.3397 2.53466 36.5994 4.79421C34.8585 7.05437 33.6582 10.1801 33.2838 13.6914L34.2782 13.7974C34.6363 10.4382 35.7812 7.49522 37.3916 5.40442C39.0025 3.31299 41.0482 2.10717 43.2285 2.10717V1.10717ZM43.7285 1.61323V1.60717H42.7285V1.61323H43.7285ZM53.2974 16.0456C53.2974 11.9809 52.2023 8.27375 50.4083 5.56811C48.6169 2.86651 46.0875 1.11323 43.2285 1.11323V2.11323C45.6457 2.11323 47.9008 3.59615 49.5748 6.12074C51.2462 8.64128 52.2974 12.1503 52.2974 16.0456H53.2974ZM43.2285 30.984C46.0789 30.984 48.6081 29.2286 50.4013 26.5262C52.1976 23.8193 53.2974 20.1107 53.2974 16.0456H52.2974C52.2974 19.9404 51.2418 23.451 49.5681 25.9733C47.8914 28.5001 45.6361 29.984 43.2285 29.984V30.984ZM33.2856 18.4124C33.6632 21.921 34.868 25.0435 36.61 27.3011C38.3513 29.5578 40.6609 30.984 43.2285 30.984V29.984C41.058 29.984 39.0141 28.7799 37.4017 26.6902C35.79 24.6015 34.641 21.6614 34.2799 18.3054L33.2856 18.4124ZM33.7828 17.8589H33.1725V18.8589H33.7828V17.8589Z" fill="#173430"/>
<path fill-rule="evenodd" clip-rule="evenodd" d="M13.1737 31.0911H20.0043C25.6145 31.0911 30.1804 24.3759 30.1804 16.082C30.1804 7.78811 25.6145 1.03642 20.0043 1.03642H13.1737C13.0932 1.03642 13.016 1.06841 12.959 1.12534C12.9077 1.17668 12.8766 1.24453 12.871 1.31641C12.9715 1.31189 13.0724 1.30962 13.1737 1.30962C13.8529 1.30962 14.5162 1.41206 15.1569 1.60716H20.0043C25.2806 1.60716 29.5733 8.08562 29.5733 16.0456C29.5733 24.0055 25.2806 30.484 20.0043 30.484H15.1961C14.5433 30.6869 13.8668 30.7936 13.1737 30.7936C13.0721 30.7936 12.9709 30.7913 12.8701 30.7868V30.7876C12.8701 30.8681 12.9021 30.9453 12.959 31.0022C13.016 31.0592 13.0932 31.0911 13.1737 31.0911Z" fill="#173430"/>
<path d="M12.959 1.12534L13.3126 1.47889L13.3126 1.47889L12.959 1.12534ZM12.871 1.31641L12.3725 1.27756L12.3286 1.8413L12.8935 1.8159L12.871 1.31641ZM15.1569 1.60716L15.0112 2.08547L15.0824 2.10716H15.1569V1.60716ZM15.1961 30.484V29.984H15.1202L15.0477 30.0065L15.1961 30.484ZM12.8701 30.7868L12.8926 30.2873L12.3701 30.2637V30.7868H12.8701ZM20.0043 30.5911H13.1737V31.5911H20.0043V30.5911ZM29.6804 16.082C29.6804 20.1421 28.562 23.7936 26.7825 26.416C25.001 29.0413 22.5941 30.5911 20.0043 30.5911V31.5911C23.0247 31.5911 25.7059 29.7834 27.6099 26.9775C29.5159 24.1688 30.6804 20.3158 30.6804 16.082H29.6804ZM20.0043 1.53642C22.593 1.53642 25 3.09416 26.782 5.72911C28.562 8.36087 29.6804 12.0218 29.6804 16.082H30.6804C30.6804 11.8483 29.516 7.98645 27.6104 5.16889C25.707 2.35453 23.0258 0.536423 20.0043 0.536423V1.53642ZM13.1737 1.53642H20.0043V0.536423H13.1737V1.53642ZM13.3126 1.47889C13.2758 1.51572 13.2258 1.53642 13.1737 1.53642V0.536423C12.9606 0.536423 12.7562 0.62109 12.6055 0.771786L13.3126 1.47889ZM13.3695 1.35526C13.3659 1.40179 13.3458 1.44568 13.3126 1.47889L12.6055 0.771786C12.4696 0.907693 12.3874 1.08726 12.3725 1.27756L13.3695 1.35526ZM13.1737 0.809615C13.0649 0.809615 12.9566 0.812059 12.8486 0.816913L12.8935 1.8159C12.9865 1.81172 13.0799 1.80962 13.1737 1.80962V0.809615ZM15.3025 1.12885C14.6161 0.919801 13.9038 0.809615 13.1737 0.809615V1.80962C13.8021 1.80962 14.4163 1.90431 15.0112 2.08547L15.3025 1.12885ZM20.0043 1.10716H15.1569V2.10716H20.0043V1.10716ZM30.0733 16.0456C30.0733 11.9809 28.9782 8.27229 27.1842 5.56518C25.3929 2.86217 22.8636 1.10716 20.0043 1.10716V2.10716C22.4213 2.10716 24.6765 3.59138 26.3506 6.11759C28.022 8.6397 29.0733 12.1503 29.0733 16.0456H30.0733ZM20.0043 30.984C22.8636 30.984 25.3929 29.229 27.1842 26.526C28.9782 23.8188 30.0733 20.1102 30.0733 16.0456H29.0733C29.0733 19.9408 28.022 23.4514 26.3506 25.9735C24.6765 28.4998 22.4213 29.984 20.0043 29.984V30.984ZM15.1961 30.984H20.0043V29.984H15.1961V30.984ZM13.1737 31.2936C13.9187 31.2936 14.6452 31.1789 15.3446 30.9614L15.0477 30.0065C14.4414 30.195 13.8149 30.2936 13.1737 30.2936V31.2936ZM12.8476 31.2863C12.9559 31.2911 13.0646 31.2936 13.1737 31.2936V30.2936C13.0796 30.2936 12.9859 30.2915 12.8926 30.2873L12.8476 31.2863ZM13.3701 30.7876V30.7868H12.3701V30.7876H13.3701ZM13.3126 30.6487C13.3494 30.6855 13.3701 30.7354 13.3701 30.7876H12.3701C12.3701 31.0007 12.4548 31.2051 12.6055 31.3558L13.3126 30.6487ZM13.1737 30.5911C13.2258 30.5911 13.2758 30.6119 13.3126 30.6487L12.6055 31.3558C12.7562 31.5065 12.9605 31.5911 13.1737 31.5911V30.5911Z" fill="#173430"/>
<path fill-rule="evenodd" clip-rule="evenodd" d="M2.82147 18.6625H12.6029C13.6412 18.6625 14.4244 17.5149 14.4244 16.0517C14.4244 14.5884 13.6412 13.4408 12.6029 13.4408H2.82147C2.74144 13.4424 2.66512 13.4749 2.60852 13.5315C2.55192 13.5881 2.51944 13.6644 2.51788 13.7444V13.7892C2.61604 13.7599 2.71756 13.7445 2.82148 13.7445C3.09991 13.7445 3.36111 13.8549 3.58659 14.048H12.6029C13.2465 14.048 13.8172 14.9648 13.8172 16.0517C13.8172 17.1385 13.2769 18.0553 12.6029 18.0553H3.58675C3.36124 18.2485 3.09998 18.359 2.82148 18.359C2.71756 18.359 2.61604 18.3436 2.51788 18.3143V18.3589C2.51944 18.4389 2.55192 18.5152 2.60852 18.5718C2.66512 18.6284 2.74144 18.6609 2.82147 18.6625Z" fill="#173430"/>
<path d="M2.82147 18.6625L2.81176 19.1625H2.82147V18.6625ZM2.82147 13.4408V12.9408L2.81176 12.9409L2.82147 13.4408ZM2.60852 13.5315L2.96207 13.885H2.96207L2.60852 13.5315ZM2.51788 13.7444L2.01788 13.7347V13.7444H2.51788ZM2.51788 13.7892H2.01788V14.4604L2.66097 14.2683L2.51788 13.7892ZM3.58659 14.048L3.26134 14.4278L3.40174 14.548H3.58659V14.048ZM3.58675 18.0553V17.5553H3.40186L3.26144 17.6756L3.58675 18.0553ZM2.51788 18.3143L2.66097 17.8352L2.01788 17.6431V18.3143H2.51788ZM2.51788 18.3589H2.01779L2.01798 18.3686L2.51788 18.3589ZM2.60852 18.5718L2.96207 18.2183L2.96207 18.2183L2.60852 18.5718ZM12.6029 18.1625H2.82147V19.1625H12.6029V18.1625ZM13.9244 16.0517C13.9244 16.6992 13.7503 17.2483 13.4921 17.621C13.2356 17.9911 12.9196 18.1625 12.6029 18.1625V19.1625C13.3245 19.1625 13.9193 18.7601 14.314 18.1906C14.7068 17.6237 14.9244 16.8674 14.9244 16.0517H13.9244ZM12.6029 13.9408C12.9196 13.9408 13.2356 14.1122 13.4921 14.4823C13.7503 14.855 13.9244 15.4041 13.9244 16.0517H14.9244C14.9244 15.2359 14.7068 14.4796 14.314 13.9127C13.9193 13.3432 13.3245 12.9408 12.6029 12.9408V13.9408ZM2.82147 13.9408H12.6029V12.9408H2.82147V13.9408ZM2.96207 13.885C2.9273 13.9198 2.8804 13.9398 2.83118 13.9408L2.81176 12.9409C2.60248 12.945 2.40294 13.03 2.25497 13.1779L2.96207 13.885ZM3.01779 13.7541C3.01683 13.8033 2.99686 13.8503 2.96207 13.885L2.25497 13.1779C2.10698 13.3259 2.02204 13.5255 2.01798 13.7347L3.01779 13.7541ZM3.01788 13.7892V13.7444H2.01788V13.7892H3.01788ZM2.82148 13.2445C2.6677 13.2445 2.51802 13.2673 2.37479 13.3101L2.66097 14.2683C2.71406 14.2524 2.76741 14.2445 2.82148 14.2445V13.2445ZM3.91185 13.6683C3.61216 13.4116 3.23915 13.2445 2.82148 13.2445V14.2445C2.96068 14.2445 3.11007 14.2982 3.26134 14.4278L3.91185 13.6683ZM12.6029 13.548H3.58659V14.548H12.6029V13.548ZM14.3172 16.0517C14.3172 15.4263 14.1542 14.8332 13.878 14.3815C13.6119 13.9461 13.1742 13.548 12.6029 13.548V14.548C12.6752 14.548 12.8447 14.6084 13.0248 14.903C13.195 15.1814 13.3172 15.5902 13.3172 16.0517H14.3172ZM12.6029 18.5553C13.1858 18.5553 13.625 18.1619 13.8914 17.7186C14.1642 17.2645 14.3172 16.6717 14.3172 16.0517H13.3172C13.3172 16.5184 13.2001 16.9275 13.0342 17.2035C12.8619 17.4903 12.694 17.5553 12.6029 17.5553V18.5553ZM3.58675 18.5553H12.6029V17.5553H3.58675V18.5553ZM2.82148 18.859C3.23925 18.859 3.61233 18.6918 3.91206 18.435L3.26144 17.6756C3.11014 17.8052 2.96071 17.859 2.82148 17.859V18.859ZM2.37479 18.7934C2.51802 18.8361 2.6677 18.859 2.82148 18.859V17.859C2.76741 17.859 2.71406 17.851 2.66097 17.8352L2.37479 18.7934ZM3.01788 18.3589V18.3143H2.01788V18.3589H3.01788ZM2.96207 18.2183C2.99687 18.2531 3.01683 18.3 3.01779 18.3492L2.01798 18.3686C2.02204 18.5778 2.10697 18.7774 2.25497 18.9254L2.96207 18.2183ZM2.83117 18.1626C2.88036 18.1635 2.92727 18.1835 2.96207 18.2183L2.25497 18.9254C2.40296 19.0734 2.60252 19.1583 2.81176 19.1624L2.83117 18.1626Z" fill="#173430"/>
<path d="M4 15L2.5 13.5H11.5L13.5 14.5L14 16.5L12.5 18.5L4 18V15Z" fill="#173430"/>
<path fill-rule="evenodd" clip-rule="evenodd" d="M6.21289 18.359C6.9288 23.045 9.77757 26.5556 13.1737 26.5556C17.1082 26.5556 20.3079 21.844 20.3079 16.0516C20.3079 10.2592 17.1082 5.55371 13.1737 5.55371C9.77758 5.55371 6.92882 9.05977 6.2129 13.7445H6.82596C7.51343 9.4006 10.0976 6.16088 13.1737 6.16088C16.7682 6.16088 19.7008 10.5932 19.7008 16.0516C19.7008 21.51 16.7742 25.9484 13.1737 25.9484C10.0976 25.9484 7.51339 22.7042 6.82595 18.359H6.21289Z" fill="#173430"/>
<path d="M6.21289 18.359V17.859H5.6307L5.71863 18.4345L6.21289 18.359ZM6.2129 13.7445L5.71864 13.669L5.63069 14.2445H6.2129V13.7445ZM6.82596 13.7445V14.2445H7.25306L7.31982 13.8227L6.82596 13.7445ZM6.82595 18.359L7.31981 18.2808L7.25306 17.859H6.82595V18.359ZM13.1737 26.0556C11.66 26.0556 10.2288 25.2747 9.07146 23.8934C7.91341 22.5113 7.05366 20.5515 6.70716 18.2835L5.71863 18.4345C6.08803 20.8524 7.01062 22.9909 8.30497 24.5356C9.6 26.0812 11.2913 27.0556 13.1737 27.0556V26.0556ZM19.8079 16.0516C19.8079 18.8606 19.0312 21.3859 17.8026 23.1948C16.5721 25.0067 14.9256 26.0556 13.1737 26.0556V27.0556C15.3563 27.0556 17.277 25.7487 18.6299 23.7567C19.9848 21.7617 20.8079 19.0349 20.8079 16.0516H19.8079ZM13.1737 6.05371C14.9259 6.05371 16.5723 7.10138 17.8027 8.9116C19.0312 10.7189 19.8079 13.2426 19.8079 16.0516H20.8079C20.8079 13.0683 19.9848 10.343 18.6298 8.34945C17.2767 6.35881 15.356 5.05371 13.1737 5.05371V6.05371ZM6.70716 13.82C7.05367 11.5526 7.91337 9.59437 9.07134 8.21362C10.2286 6.83372 11.6598 6.05371 13.1737 6.05371V5.05371C11.2916 5.05371 9.60027 6.02673 8.30513 7.57104C7.01069 9.1145 6.08806 11.2516 5.71864 13.669L6.70716 13.82ZM6.82596 13.2445H6.2129V14.2445H6.82596V13.2445ZM13.1737 5.66088C11.4475 5.66088 9.90199 6.57134 8.71846 8.00548C7.53534 9.43913 6.6872 11.4226 6.33211 13.6663L7.31982 13.8227C7.65219 11.7225 8.43988 9.91416 9.48974 8.64198C10.5392 7.37028 11.8239 6.66088 13.1737 6.66088V5.66088ZM20.2008 16.0516C20.2008 13.238 19.4459 10.6666 18.2024 8.78378C16.9618 6.90533 15.193 5.66088 13.1737 5.66088V6.66088C14.7489 6.66088 16.2437 7.63258 17.3679 9.33489C18.4894 11.0328 19.2008 13.4068 19.2008 16.0516H20.2008ZM13.1737 26.4484C15.1961 26.4484 16.965 25.2023 18.2048 23.3222C19.4475 21.4378 20.2008 18.8649 20.2008 16.0516H19.2008C19.2008 18.6967 18.4908 21.0722 17.37 22.7717C16.2465 24.4754 14.7518 25.4484 13.1737 25.4484V26.4484ZM6.33209 18.4371C6.68716 20.6815 7.53525 22.6663 8.71829 24.1012C9.90169 25.5366 11.4472 26.4484 13.1737 26.4484V25.4484C11.8241 25.4484 10.5395 24.7381 9.48986 23.4651C8.4399 22.1916 7.65218 20.3817 7.31981 18.2808L6.33209 18.4371ZM6.21289 18.859H6.82595V17.859H6.21289V18.859Z" fill="#173430"/>
<path fill-rule="evenodd" clip-rule="evenodd" d="M3.11339 18.3176C3.85668 25.538 8.08569 31.0912 13.1736 31.0912C18.7838 31.0912 23.3497 24.3395 23.3497 16.0456C23.3497 7.75169 18.7838 1 13.1736 1C8.08292 1 3.85208 6.55917 3.11218 13.7853C3.32217 13.8453 3.51705 13.9689 3.6875 14.1423C4.30687 7.07819 8.32493 1.60717 13.1736 1.60717V1.61323C18.4499 1.61323 22.7426 8.08563 22.7426 16.0456C22.7426 24.0055 18.4499 30.484 13.1736 30.484C8.32748 30.484 4.31109 25.0187 3.68848 17.96C3.51812 18.1336 3.32332 18.2574 3.11339 18.3176Z" fill="#173430"/>
<path d="M3.11339 18.3176L2.97562 17.8369L2.57315 17.9523L2.61602 18.3688L3.11339 18.3176ZM3.11218 13.7853L2.61478 13.7344L2.57211 14.1512L2.97496 14.2661L3.11218 13.7853ZM3.6875 14.1423L3.33095 14.4928L4.0909 15.2658L4.18559 14.186L3.6875 14.1423ZM13.1736 1.60717H13.6736V1.10717H13.1736V1.60717ZM13.1736 1.61323H12.6736V2.11323H13.1736V1.61323ZM3.68848 17.96L4.18654 17.9161L4.09126 16.8358L3.33164 17.6098L3.68848 17.96ZM13.1736 30.5912C10.8249 30.5912 8.62855 29.3105 6.90858 27.1046C5.18881 24.8989 3.97435 21.7983 3.61076 18.2664L2.61602 18.3688C2.99573 22.0573 4.26741 25.3435 6.11996 27.7195C7.9723 30.0952 10.4344 31.5912 13.1736 31.5912V30.5912ZM22.8497 16.0456C22.8497 20.1057 21.7313 23.7667 19.9513 26.3985C18.1693 29.0334 15.7623 30.5912 13.1736 30.5912V31.5912C16.1951 31.5912 18.8763 29.773 20.7797 26.9587C22.6853 24.1411 23.8497 20.2793 23.8497 16.0456H22.8497ZM13.1736 1.5C15.7623 1.5 18.1693 3.05774 19.9513 5.69269C21.7313 8.32445 22.8497 11.9854 22.8497 16.0456H23.8497C23.8497 11.8118 22.6853 7.95003 20.7797 5.13247C18.8763 2.31811 16.1951 0.5 13.1736 0.5V1.5ZM3.60958 13.8363C3.97151 10.3016 5.18561 7.19803 6.90578 4.99015C8.62615 2.78201 10.8236 1.5 13.1736 1.5V0.5C10.4329 0.5 7.96963 1.99758 6.11693 4.37556C4.26402 6.75381 2.99276 10.043 2.61478 13.7344L3.60958 13.8363ZM4.04405 13.7918C3.824 13.5679 3.55644 13.3922 3.24941 13.3045L2.97496 14.2661C3.08789 14.2984 3.2101 14.3699 3.33095 14.4928L4.04405 13.7918ZM13.1736 1.10717C10.5469 1.10717 8.19632 2.58995 6.44456 4.9257C4.69197 7.26256 3.50589 10.4891 3.18941 14.0986L4.18559 14.186C4.48848 10.7314 5.62112 7.69035 7.24457 5.52568C8.86887 3.35989 10.9516 2.10717 13.1736 2.10717V1.10717ZM13.6736 1.61323V1.60717H12.6736V1.61323H13.6736ZM23.2426 16.0456C23.2426 11.9809 22.1475 8.27375 20.3534 5.56811C18.562 2.86651 16.0327 1.11323 13.1736 1.11323V2.11323C15.5908 2.11323 17.846 3.59615 19.52 6.12074C21.1913 8.64128 22.2426 12.1503 22.2426 16.0456H23.2426ZM13.1736 30.984C16.0329 30.984 18.5622 29.229 20.3535 26.526C22.1475 23.8189 23.2426 20.1102 23.2426 16.0456H22.2426C22.2426 19.9409 21.1913 23.4514 19.5199 25.9736C17.8458 28.4998 15.5906 29.984 13.1736 29.984V30.984ZM3.19041 18.0039C3.50855 21.6107 4.69505 24.8344 6.44733 27.1691C8.19878 29.5027 10.5483 30.984 13.1736 30.984V29.984C10.9528 29.984 8.87106 28.7326 7.24713 26.5689C5.62402 24.4063 4.49102 21.368 4.18654 17.9161L3.19041 18.0039ZM3.25117 18.7982C3.55807 18.7103 3.82545 18.5342 4.04532 18.3102L3.33164 17.6098C3.21079 17.7329 3.08857 17.8046 2.97562 17.8369L3.25117 18.7982Z" fill="#173430"/>
<path d="M2.8215 18.6625C1.78932 18.6625 1 17.5149 1 16.0517C1 14.5884 1.8136 13.4408 2.8215 13.4408C3.82939 13.4408 4.643 14.5884 4.643 16.0517C4.643 17.5149 3.85975 18.6625 2.8215 18.6625ZM2.8215 14.048C2.14754 14.048 1.60717 14.9648 1.60717 16.0517C1.60717 17.1385 2.17183 18.0553 2.8215 18.0553C3.47117 18.0553 4.03583 17.1385 4.03583 16.0517C4.03583 14.9648 3.49545 14.048 2.8215 14.048Z" fill="#173430" stroke="#173430"/>
<path fill-rule="evenodd" clip-rule="evenodd" d="M50.0591 31.0911H43.2284C43.1479 31.0911 43.0707 31.0592 43.0138 31.0022C42.9569 30.9453 42.9249 30.8681 42.9249 30.7876V30.7869C43.0257 30.7914 43.1269 30.7937 43.2284 30.7937C43.9217 30.7937 44.5983 30.687 45.2512 30.484H50.0591C55.3353 30.484 59.628 24.0055 59.628 16.0456C59.628 8.08562 55.3353 1.60716 50.0591 1.60716H45.2113C44.5707 1.41212 43.9076 1.30971 43.2284 1.30971C43.1272 1.30971 43.0263 1.31198 42.9258 1.3165C42.9314 1.24459 42.9624 1.17671 43.0138 1.12534C43.0707 1.06841 43.1479 1.03642 43.2284 1.03642H50.0591C55.6693 1.03642 60.2352 7.78811 60.2352 16.082C60.2352 24.3759 55.6693 31.0911 50.0591 31.0911Z" fill="#173430"/>
<path d="M43.0138 31.0022L43.3673 30.6487H43.3673L43.0138 31.0022ZM42.9249 30.7869L42.9474 30.2874L42.4249 30.2638V30.7869H42.9249ZM45.2512 30.484V29.984H45.1753L45.1027 30.0065L45.2512 30.484ZM45.2113 1.60716L45.0657 2.08548L45.1369 2.10716H45.2113V1.60716ZM42.9258 1.3165L42.4273 1.27781L42.3835 1.84139L42.9482 1.816L42.9258 1.3165ZM43.0138 1.12534L43.3673 1.47889L43.3673 1.47889L43.0138 1.12534ZM43.2284 31.5911H50.0591V30.5911H43.2284V31.5911ZM42.6602 31.3558C42.8109 31.5065 43.0153 31.5911 43.2284 31.5911V30.5911C43.2806 30.5911 43.3305 30.6119 43.3673 30.6487L42.6602 31.3558ZM42.4249 30.7876C42.4249 31.0007 42.5096 31.2051 42.6602 31.3558L43.3673 30.6487C43.4042 30.6855 43.4249 30.7354 43.4249 30.7876H42.4249ZM42.4249 30.7869V30.7876H43.4249V30.7869H42.4249ZM43.2284 30.2937C43.1344 30.2937 43.0407 30.2916 42.9474 30.2874L42.9023 31.2863C43.0106 31.2912 43.1193 31.2937 43.2284 31.2937V30.2937ZM45.1027 30.0065C44.4964 30.1951 43.8698 30.2937 43.2284 30.2937V31.2937C43.9736 31.2937 44.7002 31.1789 45.3996 30.9614L45.1027 30.0065ZM50.0591 29.984H45.2512V30.984H50.0591V29.984ZM59.128 16.0456C59.128 19.9408 58.0768 23.4514 56.4054 25.9735C54.7312 28.4998 52.4761 29.984 50.0591 29.984V30.984C52.9183 30.984 55.4476 29.229 57.2389 26.526C59.0329 23.8188 60.128 20.1102 60.128 16.0456H59.128ZM50.0591 2.10716C52.4761 2.10716 54.7312 3.59138 56.4054 6.11759C58.0768 8.6397 59.128 12.1503 59.128 16.0456H60.128C60.128 11.9809 59.0329 8.27229 57.2389 5.56518C55.4476 2.86217 52.9183 1.10716 50.0591 1.10716V2.10716ZM45.2113 2.10716H50.0591V1.10716H45.2113V2.10716ZM43.2284 1.80971C43.8568 1.80971 44.4709 1.90438 45.0657 2.08548L45.357 1.12884C44.6706 0.91986 43.9584 0.809709 43.2284 0.809709V1.80971ZM42.9482 1.816C43.0413 1.81182 43.1347 1.80971 43.2284 1.80971V0.809709C43.1197 0.809709 43.0113 0.812153 42.9033 0.817008L42.9482 1.816ZM42.6602 0.771786C42.5243 0.907753 42.4421 1.08742 42.4273 1.27781L43.4243 1.3552C43.4207 1.40176 43.4006 1.44566 43.3673 1.47889L42.6602 0.771786ZM43.2284 0.536423C43.0153 0.536423 42.8109 0.621089 42.6602 0.771786L43.3673 1.47889C43.3305 1.51572 43.2805 1.53642 43.2284 1.53642V0.536423ZM50.0591 0.536423H43.2284V1.53642H50.0591V0.536423ZM60.7352 16.082C60.7352 11.8483 59.5707 7.98645 57.6651 5.16889C55.7617 2.35453 53.0806 0.536423 50.0591 0.536423V1.53642C52.6478 1.53642 55.0547 3.09416 56.8368 5.72911C58.6167 8.36087 59.7352 12.0218 59.7352 16.082H60.7352ZM50.0591 31.5911C53.0795 31.5911 55.7607 29.7834 57.6647 26.9775C59.5707 24.1688 60.7352 20.3158 60.7352 16.082H59.7352C59.7352 20.1421 58.6167 23.7936 56.8372 26.416C55.0557 29.0413 52.6489 30.5911 50.0591 30.5911V31.5911Z" fill="#173430"/>
<path fill-rule="evenodd" clip-rule="evenodd" d="M29.7831 18.0554H44.1636C44.8375 18.0554 45.3779 17.1385 45.3779 16.0517C45.3779 14.9649 44.8132 14.0481 44.1636 14.0481H29.7778C29.759 13.8443 29.7375 13.6419 29.7132 13.4409H44.1636C45.2018 13.4409 45.9851 14.5884 45.9851 16.0517C45.9851 17.515 45.2018 18.6625 44.1636 18.6625H29.72C29.7438 18.4615 29.7648 18.2591 29.7831 18.0554ZM22.8919 13.4409C22.9159 13.6419 22.9372 13.8443 22.9558 14.0481H22.9558C22.9372 13.8443 22.9159 13.6419 22.8918 13.4409L22.8919 13.4409Z" fill="#173430"/>
<path d="M29.7831 18.0554V17.5554H29.3259L29.2851 18.0108L29.7831 18.0554ZM29.7778 14.0481L29.2799 14.094L29.3218 14.5481H29.7778V14.0481ZM29.7132 13.4409V12.9409H29.1491L29.2168 13.5009L29.7132 13.4409ZM29.72 18.6625L29.2235 18.6038L29.1574 19.1625H29.72V18.6625ZM22.8919 13.4409L23.3883 13.3815L23.3356 12.9409H22.8919L22.8919 13.4409ZM22.9558 14.0481V14.5481H23.5033L23.4537 14.0028L22.9558 14.0481ZM22.9558 14.0481L22.4578 14.0934L22.4992 14.5481H22.9558V14.0481ZM22.8918 13.4409L22.8918 12.9409H22.3284L22.3954 13.5003L22.8918 13.4409ZM44.1636 17.5554H29.7831V18.5554H44.1636V17.5554ZM44.8779 16.0517C44.8779 16.5185 44.7607 16.9275 44.5949 17.2036C44.4226 17.4903 44.2547 17.5554 44.1636 17.5554V18.5554C44.7464 18.5554 45.1856 18.162 45.452 17.7186C45.7249 17.2645 45.8779 16.6718 45.8779 16.0517H44.8779ZM44.1636 14.5481C44.2396 14.5481 44.4088 14.6094 44.5873 14.9024C44.7566 15.1804 44.8779 15.5892 44.8779 16.0517H45.8779C45.8779 15.4274 45.7168 14.8344 45.4414 14.3822C45.1751 13.9452 44.7372 13.5481 44.1636 13.5481V14.5481ZM29.7778 14.5481H44.1636V13.5481H29.7778V14.5481ZM30.2757 14.0022C30.2565 13.7937 30.2344 13.5866 30.2096 13.3809L29.2168 13.5009C29.2405 13.6972 29.2616 13.8949 29.2799 14.094L30.2757 14.0022ZM44.1636 12.9409H29.7132V13.9409H44.1636V12.9409ZM46.4851 16.0517C46.4851 15.236 46.2675 14.4797 45.8746 13.9128C45.4799 13.3433 44.8852 12.9409 44.1636 12.9409V13.9409C44.4802 13.9409 44.7962 14.1123 45.0527 14.4824C45.311 14.8551 45.4851 15.4042 45.4851 16.0517H46.4851ZM44.1636 19.1625C44.8852 19.1625 45.4799 18.7602 45.8746 18.1907C46.2675 17.6238 46.4851 16.8675 46.4851 16.0517H45.4851C45.4851 16.6992 45.311 17.2483 45.0527 17.621C44.7962 17.9911 44.4802 18.1625 44.1636 18.1625V19.1625ZM29.72 19.1625H44.1636V18.1625H29.72V19.1625ZM30.2166 18.7212C30.2409 18.5155 30.2624 18.3084 30.2811 18.1L29.2851 18.0108C29.2673 18.2098 29.2467 18.4075 29.2235 18.6038L30.2166 18.7212ZM22.3954 13.5003C22.4189 13.6966 22.4397 13.8943 22.4578 14.0934L23.4537 14.0028C23.4348 13.7943 23.4129 13.5872 23.3883 13.3815L22.3954 13.5003ZM22.9558 14.5481H22.9558V13.5481H22.9558V14.5481ZM22.3954 13.5003C22.4189 13.6966 22.4397 13.8943 22.4578 14.0934L23.4537 14.0028C23.4347 13.7943 23.4129 13.5872 23.3883 13.3815L22.3954 13.5003ZM22.8919 12.9409H22.8918L22.8918 13.9409H22.8919L22.8919 12.9409Z" fill="#173430"/>
<path d="M44.5 14H30V18.5H44L46 16.5L44.5 14Z" fill="#173430"/>
<path d="M60 18.5V14H64.5L65.5 15.5L64.5 18L60 18.5Z" fill="#173430"/>
</svg>
