<svg width="61" height="70" viewBox="0 0 61 70" fill="none" xmlns="http://www.w3.org/2000/svg">
<path d="M38.7388 59.0956C38.7388 59.0956 35.5983 59.9065 31.8975 56.7365C28.1967 53.5665 28.3883 51.576 28.3883 51.576C31.4251 53.0486 34.8726 53.4438 38.1638 52.6966L38.7388 59.0956Z" fill="#173430"/>
<path d="M37.7066 59.9211C35.3436 59.837 33.0912 58.8994 31.3666 57.2818C27.4888 53.9496 27.5773 51.738 27.6068 51.5021C27.6194 51.3823 27.6612 51.2676 27.7284 51.1677C27.7957 51.0678 27.8863 50.986 27.9925 50.9293C28.0987 50.8725 28.2171 50.8427 28.3375 50.8423C28.4579 50.8419 28.5766 50.871 28.6831 50.927C31.5648 52.3038 34.824 52.6774 37.9425 51.9886C38.0448 51.9614 38.1517 51.9566 38.256 51.9744C38.3603 51.9922 38.4596 52.0323 38.547 52.0918C38.6325 52.1542 38.7041 52.2335 38.7574 52.3249C38.8106 52.4162 38.8445 52.5176 38.8567 52.6226L39.4317 59.0364C39.4444 59.2077 39.3968 59.3781 39.2972 59.5181C39.1976 59.6581 39.0522 59.7589 38.8862 59.8031C38.4994 59.8914 38.1032 59.931 37.7066 59.9211ZM29.4645 52.8586C30.1902 54.1376 31.1565 55.2641 32.3102 56.176C33.8131 57.6137 35.804 58.4301 37.8835 58.4614L37.456 53.5958C34.7733 54.0484 32.0191 53.7943 29.4645 52.8586Z" fill="#173430"/>
<path d="M20 51.5C18 51.5 6.83333 46.1667 1.5 43.5L4.5 40L5.5 32.5L6.5 15.5001C10.9 5.10006 15.6667 6.83339 17.5 9.00006C17.9 5.40006 23.3333 2.50001 26 1.49998C40 -3.50002 51 14 53.5 26C55.5 35.6 58.3333 36.6666 59.5 36C56.7 43.6 47.3333 47.8333 43 49C45 46.6 44.8333 38.6666 44.5 35L46 32.5L46.5 27.5H43.5V26.5L43 23L37 25H35L29.5 19.5L28.5 24L24.5 25L22.5 19.5L21 36.5C16.6 32.9 14.5 37.3333 14 40C14 42.8 18 44.8333 20 45.5V51.5Z" fill="#9DD030"/>
<path d="M36.2588 40.4966C35.4457 40.4831 34.6379 40.3642 33.8555 40.1427C33.66 40.084 33.4957 39.9501 33.399 39.7704C33.3022 39.5907 33.2808 39.3798 33.3394 39.1843C33.3981 38.9888 33.532 38.8246 33.7117 38.7278C33.8915 38.631 34.1023 38.6096 34.2978 38.6683C35.3152 38.9779 37.0107 39.1696 37.5563 38.6683C37.748 38.0785 36.303 34.7905 34.4158 31.6942C34.3653 31.6122 34.3317 31.521 34.317 31.4258C34.3022 31.3307 34.3067 31.2335 34.33 31.1401C34.3534 31.0467 34.3952 30.9589 34.4529 30.8819C34.5107 30.8049 34.5833 30.7402 34.6664 30.6916C34.7486 30.6401 34.8402 30.6054 34.9359 30.5894C35.0316 30.5734 35.1295 30.5764 35.2241 30.5983C35.3186 30.6203 35.4078 30.6606 35.4867 30.7171C35.5656 30.7736 35.6326 30.8451 35.6838 30.9275C37.689 34.245 39.8417 38.4618 38.6326 39.7741C38.3041 40.0451 37.9253 40.2485 37.5179 40.3724C37.1105 40.4964 36.6826 40.5386 36.2588 40.4966Z" fill="#173430"/>
<path d="M28.4304 30.6805C28.4486 29.6872 28.1136 28.8756 27.6821 28.8677C27.2506 28.8597 26.886 29.6585 26.8678 30.6518C26.8496 31.6451 27.1846 32.4567 27.6161 32.4647C28.0477 32.4726 28.4122 31.6738 28.4304 30.6805Z" fill="#173430"/>
<path d="M39.8902 31.3585C39.9084 30.3652 39.5733 29.5536 39.1418 29.5457C38.7103 29.5378 38.3457 30.3366 38.3275 31.3299C38.3093 32.3232 38.6444 33.1348 39.0759 33.1427C39.5074 33.1506 39.872 32.3518 39.8902 31.3585Z" fill="#173430"/>
<path d="M32.0419 34.9231H26.4833C25.7507 34.9232 25.0479 34.6331 24.5285 34.1165C24.009 33.5998 23.7153 32.8986 23.7114 32.166V27.4478C23.7114 27.2523 23.789 27.0648 23.9273 26.9265C24.0656 26.7882 24.2531 26.7106 24.4486 26.7106H34.0619C34.2574 26.7106 34.4449 26.7882 34.5832 26.9265C34.7214 27.0648 34.7991 27.2523 34.7991 27.4478V32.166C34.7991 32.528 34.7278 32.8866 34.5892 33.2211C34.4506 33.5556 34.2476 33.8596 33.9915 34.1156C33.7355 34.3716 33.4316 34.5747 33.097 34.7133C32.7625 34.8518 32.404 34.9231 32.0419 34.9231ZM25.1858 28.185V32.166C25.1897 32.5075 25.3281 32.8338 25.571 33.0739C25.8139 33.3141 26.1417 33.4487 26.4833 33.4487H32.0419C32.3821 33.4487 32.7084 33.3136 32.9489 33.073C33.1895 32.8324 33.3247 32.5062 33.3247 32.166V28.185H25.1858Z" fill="#173430"/>
<path d="M44.1912 34.9231H38.6326C37.9014 34.9231 37.2001 34.6327 36.683 34.1156C36.1659 33.5985 35.8754 32.8972 35.8754 32.166V27.4478C35.8754 27.2523 35.9531 27.0648 36.0914 26.9265C36.2296 26.7882 36.4171 26.7106 36.6126 26.7106H46.2259C46.4215 26.7106 46.609 26.7882 46.7472 26.9265C46.8855 27.0648 46.9631 27.2523 46.9631 27.4478V32.166C46.9593 32.8986 46.6655 33.5998 46.1461 34.1165C45.6267 34.6331 44.9238 34.9232 44.1912 34.9231ZM37.3499 28.185V32.166C37.3499 32.5062 37.485 32.8324 37.7256 33.073C37.9661 33.3136 38.2924 33.4487 38.6326 33.4487H44.1912C44.3609 33.4507 44.5293 33.4189 44.6866 33.3553C44.844 33.2917 44.9871 33.1976 45.1078 33.0783C45.2285 32.959 45.3243 32.8169 45.3897 32.6603C45.4551 32.5037 45.4887 32.3357 45.4887 32.166V28.185H37.3499Z" fill="#173430"/>
<path d="M36.6126 30.6032H34.3863C34.1907 30.6032 34.0032 30.5255 33.865 30.3873C33.7267 30.249 33.649 30.0615 33.649 29.866C33.649 29.6705 33.7267 29.483 33.865 29.3447C34.0032 29.2065 34.1907 29.1288 34.3863 29.1288H36.6126C36.8082 29.1288 36.9957 29.2065 37.1339 29.3447C37.2722 29.483 37.3499 29.6705 37.3499 29.866C37.3499 30.0615 37.2722 30.249 37.1339 30.3873C36.9957 30.5255 36.8082 30.6032 36.6126 30.6032Z" fill="#173430"/>
<path d="M20.5708 46.1583C19.4975 46.1214 18.443 45.8656 17.4719 45.4067C16.5009 44.9478 15.6338 44.2955 14.9238 43.4896C14.3881 42.9671 13.9673 42.3387 13.6882 41.6444C13.4091 40.9502 13.2778 40.2053 13.3028 39.4575C13.3278 38.7096 13.5084 37.9752 13.8332 37.3011C14.158 36.627 14.6198 36.028 15.1892 35.5424C15.6524 35.0269 16.2344 34.6321 16.8848 34.3924C20.3644 33.2423 22.0748 36.2354 23.328 38.4028C23.4296 38.5788 23.4571 38.7879 23.4046 38.9842C23.3521 39.1805 23.2238 39.3479 23.0479 39.4497C22.8733 39.5466 22.6677 39.5716 22.4749 39.5193C22.2822 39.467 22.1174 39.3415 22.0158 39.1695C20.5414 36.6925 19.5093 35.1296 17.3566 35.8373C16.9193 35.9998 16.5291 36.2683 16.2213 36.6188C15.7819 36.9677 15.4234 37.4077 15.1707 37.9086C14.9179 38.4095 14.7768 38.9593 14.7572 39.52C14.7376 40.0807 14.8399 40.639 15.057 41.1564C15.2741 41.6737 15.6009 42.1378 16.0149 42.5165C16.6993 43.3346 17.5928 43.9518 18.6002 44.3023C19.6076 44.6528 20.6912 44.7235 21.7356 44.507C21.8325 44.4799 21.9337 44.4721 22.0335 44.4841C22.1333 44.4961 22.2298 44.5277 22.3174 44.5769C22.405 44.6262 22.4821 44.6923 22.5442 44.7714C22.6063 44.8504 22.6522 44.941 22.6793 45.0378C22.7064 45.1346 22.7142 45.2358 22.7022 45.3356C22.6902 45.4354 22.6586 45.5319 22.6093 45.6195C22.56 45.7071 22.494 45.7842 22.4149 45.8463C22.3358 45.9084 22.2453 45.9543 22.1485 45.9814C21.6335 46.114 21.1024 46.1735 20.5708 46.1583Z" fill="#173430"/>
<path d="M35.153 46.3353C33.6762 46.3787 32.2396 45.8506 31.1425 44.8609C28.7392 42.6492 29.1668 38.6978 29.1816 38.5208C29.2108 38.3279 29.3125 38.1535 29.4659 38.0329C29.6193 37.9124 29.8129 37.8549 30.0072 37.8721C30.2017 37.8979 30.3784 37.9987 30.4996 38.1529C30.6208 38.3072 30.6769 38.5027 30.656 38.6978C30.656 38.6978 30.3021 42.0742 32.1304 43.7698C32.8123 44.283 33.607 44.6258 34.4483 44.7694C35.2896 44.913 36.153 44.8534 36.9666 44.5955C37.0607 44.5741 37.1582 44.5722 37.2531 44.5899C37.348 44.6075 37.4382 44.6445 37.5183 44.6983C37.5984 44.7522 37.6667 44.8218 37.7188 44.9031C37.771 44.9843 37.806 45.0753 37.8217 45.1705C37.8432 45.2655 37.8452 45.3639 37.8277 45.4597C37.8101 45.5555 37.7734 45.6468 37.7197 45.7281C37.666 45.8094 37.5964 45.8789 37.5151 45.9326C37.4338 45.9863 37.3425 46.023 37.2467 46.0404C36.5598 46.2056 35.8587 46.3043 35.153 46.3353Z" fill="#173430"/>
<path d="M34.578 53.4275C31.6274 53.5561 28.7087 52.7736 26.218 51.1864C26.1405 51.1302 26.0749 51.0594 26.0248 50.9779C25.9748 50.8964 25.9412 50.8058 25.9262 50.7113C25.9111 50.6168 25.9148 50.5203 25.9371 50.4273C25.9593 50.3342 25.9996 50.2465 26.0558 50.169C26.112 50.0916 26.1828 50.026 26.2643 49.9759C26.3458 49.9258 26.4364 49.8923 26.5309 49.8773C26.6254 49.8622 26.7219 49.8659 26.8149 49.8881C26.9079 49.9104 26.9957 49.9507 27.0732 50.0068C31.3195 53.0884 38.6622 51.5992 38.7359 51.5845C38.9314 51.5454 39.1345 51.5856 39.3004 51.6962C39.4663 51.8068 39.5815 51.9787 39.6206 52.1743C39.6597 52.3698 39.6195 52.5728 39.5089 52.7387C39.3983 52.9046 39.2263 53.0198 39.0308 53.0589C37.5614 53.3213 36.0705 53.4448 34.578 53.4275Z" fill="#173430"/>
<path fill-rule="evenodd" clip-rule="evenodd" d="M42.4409 50.1544C44.0232 49.7132 45.5678 49.1883 47.0959 48.5471C53.5244 45.8637 58.3311 41.3224 60.3658 36.0587C60.418 35.9139 60.4263 35.7568 60.3896 35.6073C60.3528 35.4578 60.2728 35.3224 60.1594 35.2183C60.0485 35.1144 59.9083 35.0473 59.7578 35.0262C59.6074 35.0051 59.4541 35.031 59.319 35.1003C58.6112 35.4689 57.5791 34.8792 57.1368 34.1272C56.0643 31.9275 55.2813 29.5982 54.8072 27.1974C54.3558 25.0719 53.7193 22.9899 52.9052 20.9753C50.089 14.7089 46.8158 8.42787 41.9502 4.38793C39.9907 2.63218 37.6543 1.34961 35.1211 0.638973C32.5879 -0.0716598 29.9253 -0.191386 27.3386 0.289011C25.7314 0.613386 18.3593 4.0783 16.8849 7.26307C16.3759 6.90069 15.7814 6.67711 15.1598 6.61432C12.4616 6.4079 9.39475 8.72275 8.03827 10.4478C5.06455 14.3569 5.07845 20.2887 5.08832 24.5003C5.08887 24.7365 5.08941 24.9674 5.08941 25.1921V26.4307C5.08941 26.7608 5.09016 27.0914 5.09091 27.4223C5.10117 31.969 5.11155 36.567 3.18739 40.5115C2.67134 41.5583 1.77194 42.5462 0.931518 42.3398C0.748277 42.3008 0.557116 42.3303 0.394131 42.4227C0.231145 42.515 0.107616 42.6639 0.0468626 42.8411C-0.0185545 43.0157 -0.0153832 43.2086 0.0557493 43.381C0.126882 43.5533 0.260683 43.6923 0.430206 43.77L12.8891 49.7561C15.2386 51.0118 17.7427 51.9528 20.337 52.5551V50.9968C17.972 50.4107 15.6882 49.5335 13.5379 48.3849L2.90725 43.2687C3.60381 42.7068 4.15925 41.9898 4.52913 41.175C6.77027 36.6042 6.66705 31.429 6.56384 26.4307L6.62282 25.1626C6.5491 21.1522 6.44589 15.0775 9.29154 11.4504C10.4268 9.97602 13.0956 8.01503 15.086 8.19196C15.4846 8.22502 15.8671 8.36414 16.1938 8.59489C16.5205 8.82563 16.7794 9.1396 16.9438 9.5042C17.0477 9.67016 17.2112 9.79007 17.4007 9.83937C17.5901 9.88867 17.7913 9.86361 17.9629 9.76932C18.1345 9.67504 18.2635 9.51868 18.3235 9.3323C18.3835 9.14593 18.3699 8.94367 18.2856 8.76698C18.2081 8.62709 18.1675 8.46981 18.1675 8.30991C18.1675 8.15001 18.2081 7.99273 18.2856 7.85284C19.4651 5.31682 26.2033 2.02884 27.6777 1.73395C30.031 1.31578 32.4486 1.43829 34.7475 2.09222C37.0465 2.74615 39.1666 3.91437 40.9476 5.5085C45.592 9.35676 48.7473 15.4904 51.4897 21.5503C52.2689 23.4835 52.8758 25.4817 53.3033 27.5217C53.7965 30.0806 54.6347 32.5606 55.7951 34.8939C56.0705 35.3661 56.4452 35.7728 56.8932 36.0859C57.3413 36.399 57.852 36.6111 58.3901 36.7074C55.8319 41.4847 51.6474 45.1879 46.5946 47.1464C45.3522 47.6679 44.0948 48.1096 42.8106 48.4909L42.4409 50.1544Z" fill="#173430"/>
<path fill-rule="evenodd" clip-rule="evenodd" d="M31.747 70C31.0594 69.9993 30.3734 69.9352 29.6976 69.8084C27.3111 69.4257 25.0893 68.3515 23.3072 66.7188C21.5252 65.0861 20.2611 62.9666 19.6715 60.6227C19.6715 60.5487 19.4688 51.9269 19.3138 45.417L20.337 45.7581L20.833 45.6341C20.9878 52.0923 21.1901 60.431 21.1901 60.431C21.7207 62.4683 22.8451 64.3018 24.4203 65.6985C25.9956 67.0952 27.9505 67.992 30.0367 68.2749C30.9637 68.5 31.9269 68.5337 32.8675 68.374C33.808 68.2143 34.706 67.8645 35.5068 67.3461C37.0257 66.1102 38.068 64.3851 38.4557 62.4657L38.0871 52.2921C38.0788 52.1174 38.1317 51.9452 38.2366 51.8053C38.3416 51.6654 38.492 51.5664 38.6621 51.5254C38.8538 51.5254 43.0117 50.3754 43.5572 44.802C44.0161 41.2622 44.0283 37.6791 43.5938 34.137H45.0574C45.4951 37.7482 45.4767 41.4007 45.0022 45.0084C44.9437 46.6928 44.3988 48.3242 43.4334 49.7057C42.4679 51.0872 41.1232 52.1596 39.5615 52.7934L39.9154 62.4804C39.9219 62.5294 39.9219 62.579 39.9154 62.6279C39.4702 64.9683 38.1856 67.0656 36.303 68.5256C34.9793 69.4881 33.3837 70.0045 31.747 70ZM21.0878 36.5866C21.102 36.5481 21.1164 36.5098 21.1311 36.4715C21.2786 36.0144 21.4113 35.5868 21.485 35.2625C21.8831 33.4047 22.237 31.7091 22.5024 29.9398C22.8857 27.4285 23.1367 24.8988 23.2543 22.3612C23.5642 23.2506 23.825 24.1562 24.0358 25.0741C24.0567 25.1711 24.0967 25.263 24.1533 25.3445C24.2099 25.426 24.2821 25.4955 24.3657 25.5489C24.4493 25.6024 24.5427 25.6388 24.6404 25.656C24.7382 25.6732 24.8383 25.6709 24.9352 25.6492L28.9899 24.8235C29.1354 24.7944 29.2691 24.7228 29.374 24.6179C29.479 24.5129 29.5505 24.3792 29.5796 24.2337C29.7883 23.225 29.9458 22.2063 30.0514 21.1816C31.2679 22.536 32.5838 23.7977 33.9882 24.9562C34.4417 25.415 35.0218 25.7281 35.6543 25.8556C36.1283 25.8848 36.6026 25.8041 37.0402 25.6197C37.4561 25.4811 37.89 25.3153 38.3208 25.1507L38.3209 25.1507C38.4399 25.1052 38.5587 25.0599 38.6769 25.0152C39.7313 24.584 40.8153 24.2292 41.9206 23.9536C42.1537 23.9211 42.385 23.8768 42.6136 23.8209C42.7205 24.1418 42.7947 24.4728 42.8348 24.8087C42.965 25.7392 43.0424 26.6696 43.1041 27.6001H44.574C44.5095 26.5838 44.4276 25.5585 44.2797 24.5728L44.2716 24.5205L44.2716 24.5205C44.1426 23.6876 44.0317 22.972 43.454 22.5676C43.1578 22.4152 42.8332 22.3259 42.5007 22.3056C42.1681 22.2853 41.8351 22.3344 41.5225 22.4497C40.3518 22.7457 39.2037 23.1251 38.0871 23.585L36.48 24.16C36.2554 24.2551 36.0158 24.3101 35.7722 24.3222C35.4677 24.2328 35.1895 24.0709 34.9613 23.8504C33.1606 22.3544 31.5111 20.6852 30.0367 18.8668C29.9414 18.7453 29.8111 18.6561 29.6634 18.6112C29.5157 18.5664 29.3577 18.5681 29.211 18.6161C29.0614 18.6621 28.9299 18.7535 28.8348 18.8777C28.7396 19.0019 28.6856 19.1527 28.6802 19.3091C28.6089 20.7098 28.4414 22.104 28.1789 23.4818L25.3775 24.0715C24.8844 22.1268 24.1773 20.2428 23.2691 18.4539C23.2 18.2859 23.0736 18.1478 22.9122 18.0643C22.7508 17.9808 22.5651 17.9573 22.388 17.998C22.2109 18.0388 22.0541 18.141 21.9454 18.2866C21.8367 18.4323 21.7833 18.6117 21.7946 18.7931C21.8243 22.4504 21.558 26.1042 20.9984 29.7186C20.7478 31.4437 20.3939 33.095 19.9958 34.9381C19.9775 35.0252 19.952 35.1222 19.9221 35.2266L21.0878 36.5866Z" fill="#173430"/>
</svg>
