<svg width="18" height="18" viewBox="0 0 18 18" fill="none" xmlns="http://www.w3.org/2000/svg">
<path d="M11.4 1.8001C11.364 1.7693 11.0884 1.62716 10.7358 1.45086C9.64392 0.904737 8.35608 0.904737 7.26416 1.45086C6.91165 1.62716 6.63601 1.7693 6.6 1.8001L1.37922 6.32797C0.503207 7.08772 0 8.19023 0 9.34981V16.2001C0 16.6775 0.189642 17.1354 0.527208 17.4729C0.864773 17.8105 1.32261 18.0001 1.8 18.0001H6.6C6.75913 18.0001 6.91174 17.9369 7.02426 17.8244C7.13679 17.7119 7.2 17.5593 7.2 17.4001V13.8001C7.2 13.3227 7.38964 12.8649 7.72721 12.5273C8.06477 12.1898 8.52261 12.0001 9 12.0001C9.47739 12.0001 9.93523 12.1898 10.2728 12.5273C10.6104 12.8649 10.8 13.3227 10.8 13.8001V17.4001C10.8 17.5593 10.8632 17.7119 10.9757 17.8244C11.0883 17.9369 11.2409 18.0001 11.4 18.0001H16.2C16.6774 18.0001 17.1352 17.8105 17.4728 17.4729C17.8104 17.1354 18 16.6775 18 16.2001V9.34981C18 8.19023 17.4968 7.08772 16.6208 6.32797L11.4 1.8001Z" fill="#617D79"/>
</svg>
