<svg width="38" height="62" viewBox="0 0 38 62" fill="none" xmlns="http://www.w3.org/2000/svg">
<path d="M27.6694 48.7602C27.6694 48.7602 24.5431 49.5675 20.859 46.4118C17.1748 43.2561 17.3657 41.2746 17.3657 41.2746C20.3887 42.7406 23.8207 43.134 27.097 42.3901L27.6694 48.7602Z" fill="#173430"/>
<path d="M26.6419 49.5821C24.2896 49.4985 22.0473 48.5651 20.3305 46.9548C16.4702 43.6377 16.5583 41.436 16.5876 41.2012C16.6002 41.082 16.6418 40.9677 16.7088 40.8683C16.7757 40.7689 16.866 40.6874 16.9717 40.6309C17.0774 40.5745 17.1953 40.5447 17.3151 40.5444C17.435 40.544 17.5531 40.5729 17.6591 40.6287C20.5278 41.9992 23.7723 42.3712 26.8767 41.6855C26.9786 41.6585 27.085 41.6536 27.1888 41.6713C27.2927 41.6891 27.3915 41.729 27.4785 41.7883C27.5636 41.8503 27.6349 41.9293 27.6879 42.0202C27.7409 42.1112 27.7746 42.2121 27.7868 42.3167L28.3592 48.7015C28.3718 48.872 28.3244 49.0417 28.2253 49.181C28.1261 49.3204 27.9814 49.4207 27.8161 49.4647C27.4311 49.5526 27.0367 49.5921 26.6419 49.5821ZM18.437 42.5515C19.1594 43.8248 20.1214 44.9462 21.2699 45.854C22.766 47.2852 24.7478 48.0979 26.818 48.129L26.3924 43.2854C23.7219 43.736 20.98 43.4831 18.437 42.5515Z" fill="#173430"/>
<path d="M21.9744 33.4955C21.1687 33.4825 20.3686 33.359 19.5966 33.1285C19.4113 33.0678 19.2571 32.9372 19.1666 32.7645C19.0761 32.5918 19.0566 32.3907 19.1122 32.2038C19.1697 32.0197 19.2975 31.8656 19.4678 31.775C19.6381 31.6843 19.8373 31.6644 20.0222 31.7195C21.0497 32.0277 22.7376 32.2185 23.266 31.7195C23.4568 31.1324 22.0184 27.8592 20.1543 24.7769C20.1034 24.6962 20.0691 24.6061 20.0534 24.512C20.0376 24.4179 20.0408 24.3215 20.0626 24.2287C20.0845 24.1358 20.1246 24.0481 20.1807 23.9709C20.2367 23.8937 20.3076 23.8284 20.3892 23.7788C20.4719 23.7282 20.5639 23.6945 20.6597 23.6797C20.7556 23.6648 20.8534 23.6691 20.9476 23.6923C21.0418 23.7155 21.1304 23.7572 21.2084 23.8148C21.2864 23.8725 21.3521 23.9451 21.4019 24.0283C23.4128 27.3161 25.541 31.514 24.3375 32.7616C23.6769 33.3074 22.8279 33.5711 21.9744 33.4955Z" fill="#173430"/>
<path d="M21.1671 37.9427H21.0497C19.9019 37.8878 18.7774 37.5992 17.7452 37.0944C16.7129 36.5896 15.7946 35.8794 15.0465 35.0071C14.9782 34.9402 14.9239 34.8603 14.8868 34.772C14.8497 34.6838 14.8306 34.5891 14.8306 34.4934C14.8306 34.3977 14.8497 34.303 14.8868 34.2148C14.9239 34.1266 14.9782 34.0467 15.0465 33.9797C15.1147 33.9109 15.1959 33.8563 15.2853 33.8191C15.3748 33.7818 15.4707 33.7626 15.5675 33.7626C15.6644 33.7626 15.7604 33.7818 15.8498 33.8191C15.9392 33.8563 16.0204 33.9109 16.0886 33.9797C16.7054 34.6981 17.4621 35.2834 18.3125 35.6997C19.163 36.1161 20.0893 36.3549 21.035 36.4015C23.2348 36.2935 25.3208 35.3913 26.9061 33.8623C27.0433 33.7278 27.2277 33.6525 27.4198 33.6525C27.6119 33.6525 27.7964 33.7278 27.9336 33.8623C28.0023 33.9305 28.0569 34.0117 28.0942 34.1011C28.1315 34.1905 28.1506 34.2865 28.1506 34.3833C28.1506 34.4802 28.1315 34.5761 28.0942 34.6656C28.0569 34.755 28.0023 34.8362 27.9336 34.9044C26.1066 36.6829 23.7102 37.759 21.1671 37.9427Z" fill="#173430"/>
<path d="M16.4312 23.2492C16.4493 22.2604 16.1158 21.4524 15.6863 21.4445C15.2567 21.4367 14.8938 22.2319 14.8756 23.2207C14.8575 24.2095 15.1911 25.0174 15.6206 25.0253C16.0502 25.0332 16.4131 24.238 16.4312 23.2492Z" fill="#173430"/>
<path d="M27.7196 22.638C27.7377 21.6492 27.4041 20.8412 26.9746 20.8333C26.545 20.8255 26.1821 21.6207 26.164 22.6095C26.1459 23.5983 26.4794 24.4062 26.909 24.4141C27.3385 24.422 27.7014 23.6268 27.7196 22.638Z" fill="#173430"/>
<path d="M8.99999 24.5C6.59999 22.1 3.66666 24.1667 2.49999 25.5C1.66666 21.3333 0.499994 12 2.49999 8C4.49999 4 7.99999 5 9.49999 6L14 3.00005C20.5 -0.999946 29.5 2.00005 32 3.00005C34.5 4.00005 37 13.0001 37 18.0001C37 22.0001 34.3333 24.6667 33 25.5L30 16.0001C22.4 17.6001 13.5 15.6667 9.99999 14.5001V24.0001L8.99999 24.5Z" fill="#19B888"/>
<path fill-rule="evenodd" clip-rule="evenodd" d="M35.7714 19.6397C35.3515 21.8741 34.3272 23.5515 32.918 24.8524L33.3062 26.5995C35.2825 25.0439 36.7376 22.9282 37.2979 19.9039C37.698 17.1662 37.5785 14.3777 36.9457 11.6843C36.5697 8.66474 35.279 5.83241 33.2469 3.56755C30.681 1.36668 27.4377 0.112861 24.0586 0.0155354C20.0817 -0.13529 16.1403 0.814497 12.6687 2.76027C11.3831 3.39527 10.2358 4.27819 9.29279 5.35823C8.72451 4.97276 8.07217 4.72896 7.39036 4.64725C6.70856 4.56553 6.0171 4.64827 5.37382 4.88855C3.93009 5.45078 2.71943 6.48554 1.93923 7.8241C0.204857 11.0357 -0.390141 14.7402 0.25129 18.3334C0.666876 20.8904 1.27529 23.4124 2.07133 25.8777C2.13659 26.1042 2.20185 26.3307 2.26685 26.5572L3.25211 24.5867C2.60684 22.4662 2.10926 20.3032 1.7631 18.1132C1.15793 14.8633 1.6755 11.5043 3.23087 8.58734C3.8218 7.51889 4.75122 6.67725 5.87287 6.19486C6.37159 5.99527 6.91909 5.95155 7.44316 6.06946C7.96724 6.18738 8.44325 6.4614 8.80842 6.85536C8.87888 6.95531 8.97232 7.03686 9.08088 7.09315C9.18944 7.14944 9.30993 7.17883 9.43222 7.17883C9.5545 7.17883 9.675 7.14944 9.78356 7.09315C9.89212 7.03686 9.98556 6.95531 10.056 6.85536C10.8895 5.65451 12.0231 4.69299 13.3438 4.06659C16.5674 2.25189 20.2297 1.36299 23.9265 1.49799C26.9478 1.5821 29.851 2.68957 32.1607 4.63903C33.9731 6.69372 35.1105 9.25555 35.4192 11.9779C36.0052 14.4887 36.1246 17.0857 35.7714 19.6397Z" fill="#173430"/>
<path fill-rule="evenodd" clip-rule="evenodd" d="M18.6866 61.8087C19.3602 61.9284 20.0426 61.9923 20.7268 61.9995C22.3648 62.0171 23.9669 61.519 25.3062 60.5758C27.1762 59.1187 28.454 57.0326 28.9023 54.7047C28.9095 54.6462 28.9095 54.5871 28.9023 54.5286L27.8601 43.0506C29.688 42.8498 31.3921 42.0298 32.6897 40.7269C33.9873 39.424 34.8002 37.7165 34.9935 35.8878C35.5626 29.7986 31.6085 17.1314 31.2047 15.8381C31.192 15.7971 31.1827 15.7675 31.1773 15.75C31.1173 15.5756 30.9973 15.4282 30.8387 15.3341C30.68 15.24 30.4932 15.2053 30.3113 15.2362C23.5151 16.499 16.5055 15.9368 9.99734 13.607C9.87086 13.5505 9.73119 13.5302 9.59384 13.5483C9.4565 13.5664 9.32688 13.6223 9.21942 13.7098C9.11085 13.7949 9.02848 13.9089 8.98175 14.0387C8.93502 14.1685 8.92582 14.3089 8.95522 14.4436C9.82159 19.0062 9.59257 22.3245 8.98057 24.6821L10.2333 25.6843C10.9383 23.3077 11.271 20.0004 10.5551 15.4858C16.7716 17.4784 23.3752 17.9515 29.8123 16.8655C30.6489 19.6102 33.878 30.5305 33.3643 35.7557C32.8212 41.2012 27.185 41.6268 26.9501 41.6268C26.7465 41.6435 26.5572 41.7382 26.4217 41.891C26.3557 41.967 26.306 42.0557 26.2757 42.1516C26.2454 42.2476 26.2352 42.3487 26.2456 42.4488L27.3318 54.5433C26.9544 56.4532 25.9147 58.1686 24.3962 59.3869C23.6023 59.9042 22.7108 60.2532 21.7767 60.4123C20.8426 60.5713 19.8858 60.5371 18.9654 60.3116C16.7352 59.8758 14.6266 58.9593 12.7863 57.626C10.9461 56.2928 9.41837 54.5746 8.30939 52.5911L7.3217 34.4955L5.85687 34.0072L6.94436 52.8406C6.92452 52.9325 6.92452 53.0276 6.94436 53.1195C8.12586 55.3548 9.79443 57.2962 11.8268 58.8001C13.8592 60.3041 16.2035 61.3323 18.6866 61.8087Z" fill="#173430"/>
<path d="M8.30936 35.7117C8.23666 35.7259 8.1619 35.7259 8.0892 35.7117C6.73472 35.3772 5.42428 34.8845 4.18491 34.2439C2.85703 33.5324 1.81889 32.3801 1.24937 30.9854C0.920347 30.0689 0.834382 29.0829 0.999846 28.1233C1.14224 27.1079 1.5001 26.1346 2.04943 25.2689C2.59877 24.4031 3.32687 23.6648 4.18491 23.1035C4.81038 22.662 5.54851 22.4074 6.31318 22.3696C7.21594 22.4249 8.08076 22.7524 8.79373 23.309C10.0201 24.1583 11.0674 25.2405 11.876 26.494C11.93 26.5769 11.9671 26.6696 11.9853 26.7668C12.0034 26.8641 12.0022 26.9639 11.9818 27.0607C11.9614 27.1575 11.922 27.2493 11.8661 27.3308C11.8102 27.4124 11.7388 27.4822 11.6559 27.5361C11.573 27.5901 11.4803 27.6272 11.3831 27.6454C11.2858 27.6635 11.186 27.6623 11.0892 27.6419C10.9925 27.6215 10.9007 27.5821 10.8191 27.5262C10.7375 27.4703 10.6677 27.3989 10.6138 27.316C9.92204 26.2417 9.03601 25.3059 8.00113 24.5566C7.54427 24.163 6.97322 23.9263 6.3719 23.8814C5.89556 23.919 5.43865 24.0865 5.0509 24.3658C4.38373 24.8059 3.81586 25.3805 3.38365 26.0528C2.95144 26.7252 2.66443 27.4804 2.541 28.27C2.4165 28.978 2.47718 29.7061 2.71714 30.3836C3.15971 31.449 3.96588 32.3227 4.9922 32.8495C6.13086 33.4563 7.33815 33.9244 8.58824 34.2439C8.68427 34.2708 8.77396 34.3167 8.85202 34.3788C8.93008 34.4409 8.99495 34.5179 9.04281 34.6054C9.09067 34.693 9.12054 34.7892 9.1307 34.8884C9.14086 34.9876 9.13109 35.0879 9.10196 35.1833C9.05429 35.3512 8.94831 35.4967 8.80304 35.5935C8.65777 35.6904 8.48273 35.7323 8.30936 35.7117Z" fill="#173430"/>
</svg>
