<svg width="18" height="18" viewBox="0 0 18 18" fill="none" xmlns="http://www.w3.org/2000/svg">
<path opacity="0.8" d="M9.00004 1.2014C8.44036 1.18801 7.88365 1.28669 7.36267 1.49162C6.84168 1.69656 6.36694 2.00361 5.96637 2.39472C5.5658 2.78582 5.24748 3.25309 5.03015 3.76903C4.81282 4.28496 4.70087 4.83915 4.70087 5.39899C4.70087 5.95884 4.81282 6.51303 5.03015 7.02896C5.24748 7.5449 5.5658 8.01216 5.96637 8.40327C6.36694 8.79438 6.84168 9.10143 7.36267 9.30637C7.88365 9.5113 8.44036 9.60998 9.00004 9.59659C9.55973 9.60998 10.1164 9.5113 10.6374 9.30637C11.1584 9.10143 11.6331 8.79438 12.0337 8.40327C12.4343 8.01216 12.7526 7.5449 12.9699 7.02896C13.1873 6.51303 13.2992 5.95884 13.2992 5.39899C13.2992 4.83915 13.1873 4.28496 12.9699 3.76903C12.7526 3.25309 12.4343 2.78582 12.0337 2.39472C11.6331 2.00361 11.1584 1.69656 10.6374 1.49162C10.1164 1.28669 9.55973 1.18801 9.00004 1.2014Z" fill="#617D79"/>
<path opacity="0.8" d="M6.60002 10.793C5.48612 10.793 4.41783 11.2355 3.63018 12.0231C2.84252 12.8108 2.40002 13.8791 2.40002 14.993C2.40002 16.6478 3.74156 17.9894 5.39642 17.9894H12.6036C14.2585 17.9894 15.6 16.6478 15.6 14.993C15.6 13.8791 15.1575 12.8108 14.3699 12.0231C13.5822 11.2355 12.5139 10.793 11.4 10.793H6.60002Z" fill="#617D79"/>
</svg>
