<svg width="18" height="18" viewBox="0 0 18 18" fill="none" xmlns="http://www.w3.org/2000/svg">
<path opacity="0.8" d="M7.79995 0C7.46858 0 7.19995 0.268629 7.19995 0.6V8.8C7.19995 9.90457 8.09538 10.8 9.19995 10.8H17.4C17.7313 10.8 18 10.5314 18 10.2C18 7.49479 16.9253 4.90038 15.0124 2.98751C13.0996 1.07464 10.5052 0 7.79995 0Z" fill="#617D79"/>
<g opacity="0.8">
<path d="M15.0005 13.2021C15.2492 12.6062 14.7717 12.0001 14.1259 12.0001H7.00005C6.44776 12.0001 6.00005 11.5524 6.00005 11.0001V3.87419C6.00005 3.22848 5.39391 2.7509 4.79802 2.9996C3.91456 3.36834 3.10309 3.898 2.40659 4.56522C1.40418 5.52547 0.6762 6.73583 0.29777 8.07138C-0.0806608 9.40692 -0.0958255 10.8193 0.253841 12.1626C0.603507 13.506 1.30533 14.7317 2.28689 15.7132C3.26844 16.6948 4.49415 17.3966 5.83751 17.7463C7.18087 18.096 8.59321 18.0808 9.92876 17.7024C11.2643 17.3239 12.4747 16.5959 13.4349 15.5935C14.1021 14.897 14.6318 14.0856 15.0005 13.2021Z" fill="#617D79"/>
</g>
</svg>
