<svg width="65" height="45" viewBox="0 0 65 45" fill="none" xmlns="http://www.w3.org/2000/svg">
<path fill-rule="evenodd" clip-rule="evenodd" d="M41.9536 19.0323C47.1647 15.9615 48.0096 10.6557 48.1017 8.07977H43.7423C43.7523 7.92293 43.7617 7.76863 43.7705 7.61713H48.3146C48.3767 7.61914 48.4359 7.64383 48.4811 7.68653C48.5225 7.73216 48.5456 7.79148 48.5459 7.85308C48.5042 10.4776 47.7086 16.4369 41.7307 19.6713C41.8077 19.4629 41.882 19.2497 41.9536 19.0323ZM40.1847 22.8249C51.5051 18.8977 50.8219 7.29219 50.782 6.61538C50.781 6.59854 50.7804 6.58846 50.7804 6.58544L50.6833 5.55838C50.6765 5.50152 50.6494 5.44904 50.6068 5.41074C50.5643 5.37244 50.5092 5.35091 50.452 5.35019H43.8705C43.8661 5.49747 43.8611 5.65186 43.8553 5.81283H50.2345L50.3085 6.62708C50.3085 6.63016 50.3091 6.64026 50.3101 6.65709C50.3484 7.31396 50.9836 18.2217 40.5508 22.2024C40.4317 22.4142 40.3096 22.6218 40.1847 22.8249Z" fill="#173430"/>
<path d="M41.9536 19.0323L41.6998 18.6015L41.5376 18.6971L41.4787 18.8758L41.9536 19.0323ZM48.1017 8.07977L48.6014 8.09765L48.62 7.57977H48.1017V8.07977ZM43.7423 8.07977L43.2433 8.04789L43.2094 8.57977H43.7423V8.07977ZM43.7705 7.61713V7.11713H43.2987L43.2714 7.58813L43.7705 7.61713ZM48.3146 7.61713L48.3307 7.11739L48.3227 7.11713H48.3146V7.61713ZM48.4811 7.68653L48.8515 7.35062L48.8385 7.33637L48.8246 7.32315L48.4811 7.68653ZM48.5459 7.85308L49.0459 7.86102L49.0459 7.85051L48.5459 7.85308ZM41.7307 19.6713L41.2617 19.4979L40.8016 20.7424L41.9686 20.111L41.7307 19.6713ZM50.782 6.61538L50.2829 6.64476L50.2829 6.64476L50.782 6.61538ZM40.1847 22.8249L39.7587 22.563L39.0248 23.7565L40.3485 23.2973L40.1847 22.8249ZM50.7804 6.58544H51.2804V6.56185L51.2782 6.53835L50.7804 6.58544ZM50.6833 5.55838L51.1812 5.51128L51.1798 5.49959L50.6833 5.55838ZM50.452 5.35019L50.4583 4.85019H50.452V5.35019ZM43.8705 5.35019V4.85019H43.3853L43.3708 5.33519L43.8705 5.35019ZM43.8553 5.81283L43.3556 5.79491L43.337 6.31283H43.8553V5.81283ZM50.2345 5.81283L50.7325 5.76756L50.6911 5.31283H50.2345V5.81283ZM50.3085 6.62708H50.8085V6.6044L50.8065 6.58181L50.3085 6.62708ZM50.3101 6.65709L50.8093 6.62802L50.8093 6.62802L50.3101 6.65709ZM40.5508 22.2024L40.3726 21.7352L40.2036 21.7997L40.1149 21.9574L40.5508 22.2024ZM42.2075 19.4631C47.6408 16.2613 48.5072 10.7331 48.6014 8.09765L47.6021 8.0619C47.5121 10.5782 46.6886 15.6618 41.6998 18.6015L42.2075 19.4631ZM48.1017 7.57977H43.7423V8.57977H48.1017V7.57977ZM44.2413 8.11165C44.2514 7.95382 44.2608 7.79857 44.2697 7.64613L43.2714 7.58813C43.2626 7.7387 43.2533 7.89203 43.2433 8.04789L44.2413 8.11165ZM43.7705 8.11713H48.3146V7.11713H43.7705V8.11713ZM48.2984 8.11687C48.2384 8.11493 48.1812 8.09109 48.1377 8.0499L48.8246 7.32315C48.6906 7.19656 48.515 7.12336 48.3307 7.11739L48.2984 8.11687ZM48.1107 8.02243C48.0693 7.97676 48.0462 7.91737 48.0459 7.85565L49.0459 7.85051C49.0449 7.66558 48.9757 7.48756 48.8515 7.35062L48.1107 8.02243ZM48.0459 7.84514C48.0052 10.4104 47.2278 16.1285 41.4927 19.2315L41.9686 20.111C48.1893 16.7453 49.0032 10.5447 49.0458 7.86101L48.0459 7.84514ZM42.1996 19.8446C42.2789 19.6304 42.3551 19.4115 42.4285 19.1888L41.4787 18.8758C41.4088 19.088 41.3365 19.2955 41.2617 19.4979L42.1996 19.8446ZM50.2829 6.64476C50.3014 6.95931 50.4782 9.95054 49.2725 13.3334C48.0729 16.6988 45.509 20.4486 40.0208 22.3526L40.3485 23.2973C46.1807 21.274 48.9354 17.2574 50.2144 13.6691C51.4872 10.0982 51.3025 6.94825 51.2811 6.58599L50.2829 6.64476ZM50.2804 6.58544C50.2804 6.60785 50.2827 6.64182 50.2829 6.64476L51.2811 6.58599C51.2806 6.57709 51.2803 6.57168 51.2801 6.56805C51.28 6.56624 51.28 6.56624 51.2801 6.56727C51.2801 6.56781 51.2802 6.56943 51.2802 6.57172C51.2803 6.57291 51.2803 6.57461 51.2803 6.57669C51.2804 6.57869 51.2804 6.58172 51.2804 6.58544H50.2804ZM50.1855 5.60547L50.2827 6.63253L51.2782 6.53835L51.1811 5.51129L50.1855 5.60547ZM50.2723 5.78239C50.2247 5.7395 50.1943 5.68077 50.1867 5.61717L51.1798 5.49959C51.1588 5.32226 51.0741 5.15858 50.9413 5.03909L50.2723 5.78239ZM50.4456 5.85015C50.3815 5.84934 50.32 5.82525 50.2723 5.78239L50.9413 5.03909C50.8085 4.91962 50.6369 4.85249 50.4583 4.85023L50.4456 5.85015ZM43.8705 5.85019H50.452V4.85019H43.8705V5.85019ZM44.355 5.83075C44.3608 5.66878 44.3659 5.51342 44.3703 5.36519L43.3708 5.33519C43.3664 5.48152 43.3614 5.63494 43.3556 5.79491L44.355 5.83075ZM50.2345 5.31283H43.8553V6.31283H50.2345V5.31283ZM50.8065 6.58181L50.7325 5.76756L49.7366 5.8581L49.8106 6.67235L50.8065 6.58181ZM50.8093 6.62802C50.8087 6.61913 50.8084 6.61372 50.8082 6.61009C50.8081 6.60827 50.8081 6.60827 50.8082 6.60928C50.8082 6.60982 50.8083 6.61141 50.8083 6.61367C50.8084 6.61484 50.8084 6.61651 50.8085 6.61855C50.8085 6.62051 50.8085 6.62346 50.8085 6.62708H49.8085C49.8085 6.64933 49.8108 6.68298 49.811 6.68617L50.8093 6.62802ZM40.7291 22.6695C46.1136 20.615 48.6525 16.7596 49.8298 13.3463C51.0019 9.94814 50.8298 6.98011 50.8093 6.62802L49.811 6.68616C49.8287 6.99095 49.9934 9.8052 48.8844 13.0203C47.7807 16.2202 45.4208 19.809 40.3726 21.7352L40.7291 22.6695ZM40.6106 23.0868C40.7389 22.8782 40.8644 22.665 40.9867 22.4474L40.1149 21.9574C39.9991 22.1635 39.8803 22.3654 39.7587 22.563L40.6106 23.0868Z" fill="#173430"/>
<path fill-rule="evenodd" clip-rule="evenodd" d="M20.0525 8.07523H15.7261C15.8107 10.6651 16.6668 16.0148 21.9579 19.0777C22.0359 19.305 22.1168 19.529 22.2007 19.749C16.1117 16.5246 15.3008 10.4965 15.2589 7.84854C15.2592 7.78693 15.2823 7.72762 15.3236 7.68198C15.3683 7.63852 15.4279 7.61371 15.4902 7.61259H20.0242C20.033 7.76419 20.0424 7.91847 20.0525 8.07523ZM19.9296 5.34564H13.3574C13.2999 5.34536 13.2443 5.36653 13.2015 5.40502C13.1587 5.44352 13.1319 5.49658 13.1261 5.55384L13.0289 6.5809C13.0151 6.69157 11.981 18.7792 23.6276 22.8443C23.5175 22.6437 23.408 22.4367 23.2993 22.2229C12.79 18.2442 13.4472 7.29261 13.4854 6.65533C13.4864 6.63943 13.487 6.62995 13.487 6.62716L13.5656 5.80829H19.943C19.9379 5.64795 19.9334 5.49358 19.9296 5.34564Z" fill="#173430"/>
<path d="M20.0525 8.07523V8.57523H20.5857L20.5515 8.04311L20.0525 8.07523ZM15.7261 8.07523V7.57523H15.2095L15.2264 8.09155L15.7261 8.07523ZM21.9579 19.0777L22.4309 18.9155L22.3703 18.7386L22.2084 18.6449L21.9579 19.0777ZM22.2007 19.749L21.9667 20.1909L23.1417 20.8131L22.6679 19.5708L22.2007 19.749ZM15.2589 7.84854L14.7588 7.84596L14.7589 7.85646L15.2589 7.84854ZM15.3236 7.68198L14.975 7.32358L14.9638 7.33449L14.9533 7.34608L15.3236 7.68198ZM15.4902 7.61259V7.11251L15.4812 7.11267L15.4902 7.61259ZM20.0242 7.61259L20.5234 7.58376L20.4962 7.11259H20.0242V7.61259ZM13.3574 5.34564L13.3549 5.84564H13.3574V5.34564ZM19.9296 5.34564L20.4295 5.33285L20.417 4.84564H19.9296V5.34564ZM13.2015 5.40502L13.536 5.77667L13.536 5.77667L13.2015 5.40502ZM13.1261 5.55384L12.6286 5.50384L12.6283 5.50675L13.1261 5.55384ZM13.0289 6.5809L13.5251 6.64291L13.526 6.63546L13.5267 6.62798L13.0289 6.5809ZM23.6276 22.8443L23.4628 23.3163L24.6931 23.7457L24.0659 22.6036L23.6276 22.8443ZM23.2993 22.2229L23.745 21.9963L23.6573 21.8238L23.4763 21.7553L23.2993 22.2229ZM13.4854 6.65533L12.9863 6.62538L12.9863 6.62539L13.4854 6.65533ZM13.487 6.62716L12.9893 6.57936L12.987 6.6032V6.62716H13.487ZM13.5656 5.80829V5.30829H13.1113L13.0679 5.76048L13.5656 5.80829ZM19.943 5.80829V6.30829H20.4594L20.4428 5.79215L19.943 5.80829ZM20.0525 7.57523H15.7261V8.57523H20.0525V7.57523ZM15.2264 8.09155C15.313 10.7433 16.1912 16.3173 21.7075 19.5104L22.2084 18.6449C17.1424 15.7124 16.3084 10.587 16.2259 8.05891L15.2264 8.09155ZM21.485 19.2398C21.5646 19.4722 21.6475 19.7015 21.7335 19.9272L22.6679 19.5708C22.5861 19.3564 22.5071 19.1378 22.4309 18.9155L21.485 19.2398ZM22.4347 19.3072C16.5919 16.2131 15.7998 10.4287 15.7588 7.84061L14.7589 7.85646C14.8018 10.5643 15.6315 16.8361 21.9667 20.1909L22.4347 19.3072ZM15.7589 7.8511C15.7585 7.91283 15.7354 7.97222 15.694 8.01789L14.9533 7.34608C14.8291 7.48302 14.7598 7.66103 14.7589 7.84597L15.7589 7.8511ZM15.6723 8.04039C15.6259 8.08554 15.564 8.11134 15.4992 8.11251L15.4812 7.11267C15.2918 7.11608 15.1108 7.19151 14.975 7.32358L15.6723 8.04039ZM15.4902 8.11259H20.0242V7.11259H15.4902V8.11259ZM19.5251 7.64141C19.5339 7.79409 19.5434 7.94947 19.5535 8.10735L20.5515 8.04311C20.5414 7.88748 20.5321 7.73429 20.5234 7.58376L19.5251 7.64141ZM13.3574 5.84564H19.9296V4.84564H13.3574V5.84564ZM13.536 5.77667C13.4863 5.82139 13.4217 5.84597 13.3549 5.84564L13.3599 4.84565C13.178 4.84474 13.0023 4.91167 12.867 5.03338L13.536 5.77667ZM13.6236 5.60383C13.6169 5.67029 13.5857 5.73193 13.536 5.77667L12.867 5.03338C12.7318 5.15511 12.6468 5.32287 12.6286 5.50384L13.6236 5.60383ZM13.5267 6.62798L13.6239 5.60092L12.6283 5.50675L12.5312 6.53381L13.5267 6.62798ZM23.7924 22.3722C18.1453 20.4012 15.587 16.5013 14.4294 13.0699C13.8486 11.3482 13.6211 9.74394 13.5402 8.5629C13.4589 7.37688 13.5263 6.63338 13.5251 6.64291L12.5328 6.51888C12.5195 6.62561 12.2557 9.75499 13.4818 13.3895C14.7153 17.0458 17.4633 21.2223 23.4628 23.3163L23.7924 22.3722ZM22.8536 22.4496C22.9647 22.668 23.0766 22.8797 23.1893 23.0849L24.0659 22.6036C23.9583 22.4078 23.8513 22.2054 23.745 21.9963L22.8536 22.4496ZM12.9863 6.62539C12.9658 6.96795 12.7881 9.94242 13.9644 13.3493C15.1461 16.7716 17.6992 20.6374 23.1223 22.6905L23.4763 21.7553C18.3901 19.8297 16.0172 16.2304 14.9097 13.0229C13.7968 9.79997 13.9669 6.97999 13.9845 6.68528L12.9863 6.62539ZM12.987 6.62716C12.987 6.62328 12.987 6.62012 12.987 6.61805C12.9871 6.6159 12.9871 6.61413 12.9872 6.6129C12.9873 6.61052 12.9873 6.60883 12.9874 6.60822C12.9874 6.60707 12.9874 6.60693 12.9873 6.6086C12.9871 6.61193 12.9868 6.61696 12.9863 6.62538L13.9845 6.68529C13.9846 6.68362 13.987 6.64971 13.987 6.62716H12.987ZM13.0679 5.76048L12.9893 6.57936L13.9847 6.67497L14.0633 5.85609L13.0679 5.76048ZM19.943 5.30829H13.5656V6.30829H19.943V5.30829ZM19.4298 5.35844C19.4336 5.50746 19.4381 5.66294 19.4433 5.82442L20.4428 5.79215C20.4376 5.63296 20.4332 5.47971 20.4295 5.33285L19.4298 5.35844Z" fill="#173430"/>
<path fill-rule="evenodd" clip-rule="evenodd" d="M35.3879 35.4728H28.4325C29.0765 34.1119 29.4827 32.6504 29.6331 31.1518C29.6721 30.3054 29.5318 29.4604 29.2214 28.672C26.316 27.5015 23.9241 24.6331 22.1198 20.1409C19.5059 13.6639 19.6863 3.33315 19.691 3.22674C19.691 3.19658 19.697 3.16672 19.7087 3.13891C19.7203 3.1111 19.7374 3.0859 19.759 3.06479C19.7805 3.04368 19.8061 3.02708 19.8341 3.01596C19.8621 3.00484 19.8921 2.99943 19.9223 3.00005L43.9148 3.21287C43.975 3.21522 44.032 3.24048 44.0742 3.28348C44.1163 3.32649 44.1404 3.38398 44.1415 3.44419L44.1416 3.45025C44.1422 3.74999 44.1652 13.8395 41.9255 19.78C40.1489 24.5082 36.8364 27.5015 34.5232 28.6628C34.3019 29.4988 34.1747 30.3569 34.1439 31.2212C34.099 33.0649 35.1331 35.0202 35.3879 35.4728ZM34.8378 35.4543H28.9391C29.5587 34.108 29.9421 32.6651 30.0726 31.1888C30.1237 30.2408 29.9658 29.2931 29.61 28.4129C29.5981 28.3838 29.5805 28.3573 29.5583 28.3351C29.5361 28.3128 29.5096 28.2952 29.4804 28.2834C26.6491 27.1684 24.3127 24.3694 22.5408 19.9558C20.1767 14.0942 20.1397 5.00328 20.1397 3.45344L43.6696 3.67088C43.6604 5.21147 43.5262 14.1867 41.486 19.6135C39.7279 24.2769 36.4663 27.2008 34.2086 28.288C34.1787 28.3019 34.1522 28.3225 34.1314 28.3481C34.1106 28.3738 34.0958 28.4039 34.0883 28.4361C33.8429 29.3423 33.7016 30.2736 33.6673 31.2119C33.6257 32.9514 34.4492 34.7187 34.8378 35.4543Z" fill="#173430"/>
<path d="M28.4325 35.4728L27.9806 35.259L27.6428 35.9728H28.4325V35.4728ZM35.3879 35.4728V35.9728H36.2431L35.8236 35.2276L35.3879 35.4728ZM29.6331 31.1518L30.1306 31.2017L30.132 31.1882L30.1326 31.1747L29.6331 31.1518ZM29.2214 28.672L29.6866 28.4888L29.6078 28.2886L29.4082 28.2082L29.2214 28.672ZM22.1198 20.1409L22.5838 19.9545L22.5835 19.9538L22.1198 20.1409ZM19.691 3.22674L20.1905 3.24846L20.191 3.23755L20.191 3.22663L19.691 3.22674ZM19.7087 3.13891L19.2477 2.94528L19.2477 2.94529L19.7087 3.13891ZM19.759 3.06479L19.409 2.70768L19.409 2.70769L19.759 3.06479ZM19.9223 3.00005L19.9121 3.49998L19.9178 3.50003L19.9223 3.00005ZM43.9148 3.21287L43.9344 2.71325L43.9268 2.71295L43.9193 2.71288L43.9148 3.21287ZM44.0742 3.28348L44.4313 2.93352L44.4313 2.93352L44.0742 3.28348ZM44.1415 3.44419L44.6416 3.44324L44.6415 3.43478L44.1415 3.44419ZM44.1416 3.45025L43.6416 3.4512L43.6416 3.45139L44.1416 3.45025ZM41.9255 19.78L41.4576 19.6037L41.4574 19.6042L41.9255 19.78ZM34.5232 28.6628L34.2989 28.2159L34.0975 28.317L34.0399 28.5348L34.5232 28.6628ZM34.1439 31.2212L33.6441 31.2033L33.644 31.209L34.1439 31.2212ZM28.9391 35.4543L28.4849 35.2453L28.1587 35.9543H28.9391V35.4543ZM34.8378 35.4543V35.9543H35.6675L35.2799 35.2208L34.8378 35.4543ZM30.0726 31.1888L30.5707 31.2328L30.5714 31.2242L30.5719 31.2157L30.0726 31.1888ZM29.61 28.4129L30.0735 28.2255L30.0731 28.2243L29.61 28.4129ZM29.5583 28.3351L29.9119 27.9815L29.9118 27.9815L29.5583 28.3351ZM29.4804 28.2834L29.669 27.8203L29.6636 27.8182L29.4804 28.2834ZM22.5408 19.9558L23.0048 19.7696L23.0045 19.7688L22.5408 19.9558ZM20.1397 3.45344L20.1443 2.95346L19.6397 2.9488V3.45344H20.1397ZM43.6696 3.67088L44.1696 3.67388L44.1726 3.17551L43.6743 3.1709L43.6696 3.67088ZM41.486 19.6135L41.9538 19.7899L41.954 19.7894L41.486 19.6135ZM34.2086 28.288L34.4191 28.7416L34.4256 28.7385L34.2086 28.288ZM34.0883 28.4361L34.571 28.5668L34.5733 28.558L34.5754 28.5492L34.0883 28.4361ZM33.6673 31.2119L33.1676 31.1936L33.1675 31.1999L33.6673 31.2119ZM28.4325 35.9728H35.3879V34.9728H28.4325V35.9728ZM28.8845 35.6867C29.5529 34.2741 29.9745 32.7572 30.1306 31.2017L29.1356 31.1018C28.9909 32.5436 28.6001 33.9497 27.9806 35.259L28.8845 35.6867ZM30.1326 31.1747C30.1748 30.258 30.0228 29.3427 29.6866 28.4888L28.7561 28.8552C29.0407 29.578 29.1694 30.3528 29.1336 31.1288L30.1326 31.1747ZM29.4082 28.2082C26.6834 27.1105 24.3643 24.3876 22.5838 19.9545L21.6559 20.3273C23.4839 24.8787 25.9486 27.8926 29.0345 29.1358L29.4082 28.2082ZM22.5835 19.9538C21.3057 16.7875 20.7018 12.6472 20.4217 9.25374C20.2822 7.56318 20.2239 6.06985 20.2008 4.99292C20.1893 4.4546 20.1865 4.02076 20.1868 3.71886C20.1869 3.56791 20.1878 3.45005 20.1887 3.36872C20.1897 3.28226 20.1906 3.24517 20.1905 3.24846L19.1914 3.20503C19.1882 3.2805 19.1425 5.91083 19.4251 9.33598C19.7072 12.7538 20.3201 17.0173 21.6562 20.328L22.5835 19.9538ZM20.191 3.22663C20.191 3.26304 20.1837 3.29904 20.1696 3.33253L19.2477 2.94529C19.2102 3.0344 19.1909 3.13012 19.191 3.22685L20.191 3.22663ZM20.1696 3.33253C20.1556 3.36604 20.1349 3.39642 20.109 3.42189L19.409 2.70769C19.3399 2.77538 19.2851 2.85616 19.2477 2.94528L20.1696 3.33253ZM20.1089 3.42189C20.083 3.44736 20.0522 3.46737 20.0184 3.48076L19.6498 2.55115C19.56 2.58678 19.4781 2.63999 19.409 2.70768L20.1089 3.42189ZM20.0184 3.48076C19.9846 3.49416 19.9485 3.50069 19.9121 3.49994L19.9325 2.50015C19.8358 2.49818 19.7397 2.51553 19.6498 2.55115L20.0184 3.48076ZM19.9178 3.50003L43.9104 3.71285L43.9193 2.71288L19.9267 2.50007L19.9178 3.50003ZM43.8953 3.71248C43.828 3.70985 43.7642 3.68161 43.717 3.63345L44.4313 2.93352C44.2998 2.79934 44.122 2.72058 43.9344 2.71325L43.8953 3.71248ZM43.717 3.63345C43.6699 3.58531 43.6429 3.52097 43.6416 3.45359L44.6415 3.43478C44.6379 3.24699 44.5627 3.06766 44.4313 2.93352L43.717 3.63345ZM43.6415 3.44513L43.6416 3.4512L44.6416 3.44931L44.6415 3.44324L43.6415 3.44513ZM43.6416 3.45139C43.6419 3.59452 43.6479 6.17608 43.3754 9.45849C43.1019 12.7527 42.5517 16.7019 41.4576 19.6037L42.3933 19.9564C43.539 16.9176 44.0971 12.8519 44.372 9.54122C44.6478 6.21881 44.6419 3.60573 44.6416 3.44912L43.6416 3.45139ZM41.4574 19.6042C39.7255 24.2136 36.5007 27.1106 34.2989 28.2159L34.7476 29.1096C37.1722 27.8924 40.5724 24.8029 42.3935 19.9559L41.4574 19.6042ZM34.0399 28.5348C33.8091 29.4068 33.6763 30.3019 33.6442 31.2033L34.6435 31.239C34.673 30.4119 34.7948 29.5907 35.0066 28.7907L34.0399 28.5348ZM33.644 31.209C33.6194 32.22 33.8891 33.2371 34.1841 34.041C34.4812 34.8503 34.8168 35.4776 34.9522 35.7181L35.8236 35.2276C35.7042 35.0155 35.3954 34.4388 35.1229 33.6964C34.8484 32.9485 34.6234 32.0661 34.6437 31.2333L33.644 31.209ZM28.9391 35.9543H34.8378V34.9543H28.9391V35.9543ZM29.5746 31.1447C29.4491 32.564 29.0805 33.951 28.4849 35.2453L29.3934 35.6633C30.0369 34.2649 30.4351 32.7662 30.5707 31.2328L29.5746 31.1447ZM29.1464 28.6003C29.4747 29.4125 29.6205 30.287 29.5734 31.1619L30.5719 31.2157C30.6269 30.1945 30.4568 29.1737 30.0735 28.2255L29.1464 28.6003ZM29.2047 28.6886C29.1799 28.6637 29.1602 28.6341 29.1469 28.6015L30.0731 28.2243C30.036 28.1334 29.9812 28.0509 29.9119 27.9815L29.2047 28.6886ZM29.2919 28.7465C29.2592 28.7332 29.2296 28.7135 29.2048 28.6886L29.9118 27.9815C29.8425 27.9122 29.7599 27.8573 29.669 27.8203L29.2919 28.7465ZM22.0768 20.1421C23.8719 24.6134 26.2815 27.5611 29.2972 28.7486L29.6636 27.8182C27.0166 26.7758 24.7536 24.1255 23.0048 19.7696L22.0768 20.1421ZM19.6397 3.45344C19.6397 4.23457 19.649 6.91288 19.956 10.1351C20.2621 13.3481 20.8676 17.144 22.0771 20.1429L23.0045 19.7688C21.8499 16.906 21.2549 13.2256 20.9515 10.0403C20.6489 6.86421 20.6397 4.22216 20.6397 3.45344H19.6397ZM43.6743 3.1709L20.1443 2.95346L20.1351 3.95342L43.665 4.17086L43.6743 3.1709ZM41.954 19.7894C42.9985 17.0111 43.5466 13.3558 43.8373 10.2312C44.1289 7.0965 44.165 4.45172 44.1696 3.67388L43.1696 3.66788C43.1651 4.43063 43.1295 7.04377 42.8416 10.1386C42.5528 13.2434 42.0137 16.7891 41.018 19.4375L41.954 19.7894ZM34.4256 28.7385C36.8014 27.5944 40.1514 24.571 41.9538 19.7899L41.0181 19.4371C39.3045 23.9828 36.1313 26.8072 33.9917 27.8375L34.4256 28.7385ZM34.5195 28.6634C34.4924 28.6968 34.458 28.7235 34.4191 28.7416L33.9982 27.8344C33.8993 27.8803 33.8121 27.9482 33.7433 28.0328L34.5195 28.6634ZM34.5754 28.5492C34.5656 28.5911 34.5465 28.6301 34.5195 28.6634L33.7433 28.0328C33.6746 28.1175 33.626 28.2166 33.6013 28.3229L34.5754 28.5492ZM34.167 31.2302C34.1999 30.3299 34.3355 29.4363 34.571 28.5668L33.6057 28.3053C33.3503 29.2483 33.2034 30.2173 33.1677 31.1936L34.167 31.2302ZM35.2799 35.2208C34.8976 34.4971 34.1288 32.8271 34.1672 31.2239L33.1675 31.1999C33.1226 33.0758 34.0008 34.9404 34.3957 35.6879L35.2799 35.2208Z" fill="#173430"/>
<path d="M41.0326 40.8117H22.7768C22.7154 40.8117 22.6566 40.7874 22.6132 40.744C22.5698 40.7006 22.5455 40.6418 22.5455 40.5804V36.5739C22.5467 36.2209 22.6875 35.8827 22.9371 35.6331C23.1867 35.3835 23.5249 35.2428 23.8779 35.2415H39.9315C40.2845 35.2428 40.6227 35.3835 40.8723 35.6331C41.1219 35.8827 41.2627 36.2209 41.2639 36.5739V40.5804C41.2639 40.6418 41.2396 40.7006 41.1962 40.744C41.1528 40.7874 41.094 40.8117 41.0326 40.8117ZM22.9896 40.3491H40.7828V36.5739C40.7828 36.3433 40.6912 36.122 40.528 35.9589C40.3649 35.7958 40.1437 35.7042 39.913 35.7042H23.8594C23.6287 35.7042 23.4075 35.7958 23.2444 35.9589C23.0812 36.122 22.9896 36.3433 22.9896 36.5739V40.3491Z" fill="#173430" stroke="#173430"/>
<path d="M42.8554 40.2935H20.9539C20.4608 40.2935 20.061 40.6933 20.061 41.1864V41.8757C20.061 42.3689 20.4608 42.7686 20.9539 42.7686H42.8554C43.3485 42.7686 43.7483 42.3689 43.7483 41.8757V41.1864C43.7483 40.6933 43.3485 40.2935 42.8554 40.2935Z" fill="#173430"/>
<path d="M42.8554 43H20.954C20.806 43 20.6594 42.9708 20.5227 42.914C20.386 42.8572 20.2619 42.774 20.1574 42.6691C20.053 42.5642 19.9703 42.4397 19.914 42.3028C19.8578 42.1659 19.8292 42.0192 19.8298 41.8711V41.1864C19.8298 40.8883 19.9482 40.6023 20.1591 40.3915C20.3699 40.1807 20.6558 40.0622 20.954 40.0622H42.8554C43.1536 40.0622 43.4395 40.1807 43.6504 40.3915C43.8612 40.6023 43.9797 40.8883 43.9797 41.1864V41.8526C43.9827 42.0022 43.9559 42.1509 43.9008 42.29C43.8457 42.429 43.7634 42.5557 43.6587 42.6626C43.554 42.7694 43.429 42.8543 43.2911 42.9123C43.1531 42.9702 43.005 43 42.8554 43ZM20.954 40.5249C20.7785 40.5249 20.6103 40.5946 20.4862 40.7186C20.3621 40.8427 20.2924 41.011 20.2924 41.1864V41.8526C20.2924 42.0285 20.362 42.1973 20.4859 42.3221C20.6099 42.4469 20.7781 42.5176 20.954 42.5188H42.8554C43.0313 42.5176 43.1996 42.4469 43.3235 42.3221C43.4475 42.1973 43.517 42.0285 43.517 41.8526V41.1679C43.517 40.9925 43.4473 40.8242 43.3232 40.7001C43.1992 40.5761 43.0309 40.5064 42.8554 40.5064L20.954 40.5249Z" fill="#173430" stroke="#173430"/>
<path d="M31.9046 7.11296L34.1762 11.7209L39.2606 12.4565L35.5826 16.0419L36.4524 21.1079L31.9046 18.716L27.3569 21.1079L28.2266 16.0419L24.5486 12.4565L29.6331 11.7209L31.9046 7.11296Z" fill="#9DD030" stroke="#173430" stroke-width="1.5" stroke-linejoin="round"/>
</svg>
